<?xml version="1.0" encoding="UTF-8"?>
<svg id="Layer_2" data-name="Layer 2" xmlns="http://www.w3.org/2000/svg" viewBox="0 0 1040.03 197.94">
  <defs>
    <style>
      .cls-1 {
        fill: #dbdc2d;
      }
    </style>
  </defs>
  <g id="logotype2">
    <g>
      <g>
        <path class="cls-1" d="M285.34,143.78v8h-19.3v8.96h15.79v8h-15.79v16.41h-9.03v-41.36h28.33Z"/>
        <path class="cls-1" d="M320.7,143.78v8h-19.44v8.34h15.92v8h-15.92v9.03h19.44v8h-28.47v-41.36h28.47Z"/>
        <path class="cls-1" d="M341.94,143.02c9.58,0,15.79,4.48,15.79,13.44h-9.03c0-4-2.62-5.65-6.89-5.65s-6.27,1.59-6.27,4.21c0,7.93,22.82,2.48,22.82,18.54,0,7.72-5.93,12.41-16.27,12.41s-15.99-4.55-15.99-13.51h9.03c0,3.79,2.48,5.72,7.24,5.72s6.96-1.72,6.96-4.55c0-8.13-22.82-2.69-22.82-18.27,0-7.45,5.65-12.34,15.44-12.34Z"/>
        <path class="cls-1" d="M394.4,151.85h-11.24v33.3h-9.03v-33.3h-11.38v-8.07h31.64v8.07Z"/>
        <path class="cls-1" d="M428.53,151.85h-9.31v25.23h9.31v8.07h-27.64v-8.07h9.31v-25.23h-9.31v-8.07h27.64v8.07Z"/>
        <path class="cls-1" d="M442.8,143.78l6.41,33.3h5.03l6.41-33.3h9.1l-8,41.36h-19.99l-8-41.36h9.03Z"/>
        <path class="cls-1" d="M505.67,185.15h-8.82v-12.27h-14.68v12.27h-8.82v-18.61l6.48-22.75h19.37l6.48,22.75v18.61ZM496.09,164.95l-3.72-13.1h-5.72l-3.72,13.1h13.17Z"/>
        <path class="cls-1" d="M522.42,143.78v33.3h19.16v8.07h-28.2v-41.36h9.03Z"/>
      </g>
      <g>
        <path class="cls-1" d="M647.36,178.9c.16,0,.24.08.24.24v5.72c0,.2-.1.29-.29.29h-15.1v-44.82h7.61v38.57h7.55Z"/>
        <path class="cls-1" d="M664.87,150.12c-1.18,0-2.1-.35-2.77-1.06-.67-.71-1-1.69-1-2.95s.33-2.24,1-2.95c.67-.71,1.59-1.06,2.77-1.06s2.04.36,2.68,1.09.97,1.7.97,2.92-.32,2.19-.97,2.92c-.65.73-1.54,1.09-2.68,1.09Z"/>
        <path class="cls-1" d="M685.86,178.9c.2,0,.29.08.29.24v5.72c0,.2-.1.29-.29.29h-39.16c-.2,0-.29-.1-.29-.29v-5.72c0-.16.1-.24.29-.24h8.61c-.63-.75-1.16-1.56-1.59-2.45-.43-.88-.76-1.81-.97-2.77-.22-.96-.32-1.94-.32-2.92,0-3.03.67-5.63,2-7.81,1.34-2.18,3.26-3.86,5.78-5.04,2.52-1.18,5.54-1.77,9.08-1.77h9.55v22.76h7.02ZM671.3,178.9v-16.51h-1.83c-1.97,0-3.65.33-5.04,1-1.4.67-2.46,1.65-3.19,2.95-.73,1.3-1.09,2.87-1.09,4.72,0,1.69.31,3.12.94,4.3.63,1.18,1.55,2.06,2.77,2.65,1.22.59,2.71.88,4.48.88h2.95Z"/>
        <path class="cls-1" d="M692.11,197.94c-1.1,0-1.99-.34-2.68-1.03-.69-.69-1.03-1.68-1.03-2.98s.34-2.24,1.03-2.95c.69-.71,1.58-1.06,2.68-1.06,1.18,0,2.09.35,2.74,1.06.65.71.97,1.69.97,2.95s-.33,2.29-1,2.98c-.67.69-1.57,1.03-2.71,1.03ZM702.2,197.94c-1.14,0-2.04-.35-2.71-1.06-.67-.71-1-1.69-1-2.95s.33-2.19,1-2.92c.67-.73,1.57-1.09,2.71-1.09s2.09.36,2.74,1.09c.65.73.97,1.7.97,2.92s-.33,2.19-1,2.92c-.67.73-1.57,1.09-2.71,1.09Z"/>
        <path class="cls-1" d="M685.27,185.15c-.2,0-.29-.1-.29-.29v-5.72c0-.16.1-.24.29-.24h9.26v-22.76h7.61v22.76h8.85c.2,0,.29.08.29.24v5.72c0,.2-.1.29-.29.29h-25.71Z"/>
        <path class="cls-1" d="M710.39,185.15c-.2,0-.29-.1-.29-.29v-5.72c0-.2.1-.29.29-.29h24.29c-.75-.67-1.43-1.78-2.03-3.33-.61-1.55-1.13-3.49-1.56-5.81-.39-1.97-.88-3.52-1.44-4.66-.57-1.14-1.32-1.97-2.24-2.48-.92-.51-2.09-.77-3.51-.77s-2.71.19-4.01.56c-1.3.37-2.65.95-4.07,1.74l-2.48-5.66c1.73-1.02,3.57-1.76,5.51-2.21,1.95-.45,4.04-.68,6.28-.68,1.1,0,2.12.07,3.07.21s1.81.38,2.59.74c2.04.75,3.65,1.97,4.81,3.66s2,4.07,2.51,7.13c.39,2.08.8,3.89,1.21,5.43.41,1.53.88,2.81,1.39,3.83.51,1.02,1.06,1.83,1.65,2.42v6.19h-31.96Z"/>
      </g>
      <g>
        <path class="cls-1" d="M902.61,144.92h31.13v41.05h-8.96v-33.05h-22.17v-8.01ZM911.78,162.16v23.81h-8.96v-23.81h8.96Z"/>
        <path class="cls-1" d="M942.03,177.97h23.19v-17.65c0-4.72-2.8-7.73-7.25-7.73s-7.18,3.01-7.18,7.73v2.8h6.91v7.73h-15.67v-10.74c0-9.78,6.16-15.87,16.01-15.87,9.92-.07,16.01,6.02,16.01,15.87v25.86h-32.02v-8Z"/>
        <path class="cls-1" d="M991.91,152.93h-12.79v-8.01h21.76v7.53c0,11.36-5.4,16.56-16.42,16.56v-7.53c5.34,0,7.46-2.33,7.46-8.55Z"/>
        <path class="cls-1" d="M1039.67,159.77v26.21h-8.96v-26.07c0-4.58-2.67-7.59-7.12-7.59s-7.18,3.01-7.18,7.59v26.07h-8.96v-26.21c0-9.51,6.23-15.67,16.15-15.67s16.08,6.16,16.08,15.67Z"/>
      </g>
      <g>
        <path class="cls-1" d="M82.29,142.91v41.75h-19.84v-41.75H0v-20.74L54.13,3.33h28.17v120.11h20.57v19.46h-20.57ZM62.94,25.61h-.49L20.08,123.44h42.86V25.61Z"/>
        <path class="cls-1" d="M185.65,109.87l-38.21,54.55h62.45v20.23h-86.7v-21.26l48.49-68.89c11.27-15.88,17.88-29.96,17.88-44.31,0-16.39-7.1-30.22-22.04-30.22-12.98,0-21.8,9.73-24.49,27.4l-20.82-2.3C126.62,15.62,144.01,0,168.99,0c28.17,0,43.11,21.51,43.11,48.92,0,23.05-11.51,39.44-26.45,60.95Z"/>
      </g>
      <g>
        <path class="cls-1" d="M266.03,7.72v16.34h13.3V7.72h9.03v41.36h-9.03v-16.75h-13.3v16.75h-9.03V7.72h9.03Z"/>
        <path class="cls-1" d="M328.49,49.08h-8.82v-12.27h-14.68v12.27h-8.82v-18.61l6.48-22.75h19.37l6.48,22.75v18.61ZM318.91,28.88l-3.72-13.1h-5.72l-3.72,13.1h13.17Z"/>
        <path class="cls-1" d="M363.17,15.78h-9.31v25.23h9.31v8.07h-27.64v-8.07h9.31V15.78h-9.31V7.72h27.64v8.07Z"/>
        <path class="cls-1" d="M399.23,7.72v8h-19.3v8.96h15.79v8h-15.79v16.41h-9.03V7.72h28.33Z"/>
        <path class="cls-1" d="M436.11,49.08h-8.82v-12.27h-14.68v12.27h-8.82v-18.61l6.48-22.75h19.37l6.48,22.75v18.61ZM426.53,28.88l-3.72-13.1h-5.72l-3.72,13.1h13.17Z"/>
      </g>
      <g>
        <path class="cls-1" d="M287.02,76.03v8h-19.3v8.96h15.79v8h-15.79v16.41h-9.03v-41.36h28.33Z"/>
        <path class="cls-1" d="M321.22,84.09h-9.31v25.23h9.31v8.07h-27.64v-8.07h9.31v-25.23h-9.31v-8.07h27.64v8.07Z"/>
        <path class="cls-1" d="M337.97,76.03v33.3h19.17v8.07h-28.2v-41.36h9.03Z"/>
        <path class="cls-1" d="M374.23,76.03l7.31,17.51,7.31-17.51h10.55v41.36h-8.55v-27.44l-5.72,14.62h-7.24l-5.72-14.68v27.51h-8.55v-41.36h10.62Z"/>
      </g>
      <g>
        <path class="cls-1" d="M551.61,19.79c-1.18,0-2.1-.35-2.77-1.06-.67-.71-1-1.69-1-2.95s.33-2.24,1-2.95c.67-.71,1.59-1.06,2.77-1.06s2.03.36,2.68,1.09.97,1.7.97,2.92-.33,2.19-.97,2.92c-.65.73-1.54,1.09-2.68,1.09Z"/>
        <path class="cls-1" d="M550.01,62.78c-1.61,0-3.1-.2-4.45-.59-1.36-.39-2.61-.94-3.75-1.65-2.04-1.34-3.63-3.18-4.75-5.51-1.12-2.34-1.68-5-1.68-7.99,0-2.28.25-4.55.74-6.81.49-2.26,1.19-4.33,2.09-6.22h6.78c-.63,1.97-1.12,4.07-1.47,6.31-.35,2.24-.53,4.46-.53,6.66,0,2.95.7,5.28,2.09,6.99s3.29,2.57,5.69,2.57h2.18c3.14,0,5.46-.81,6.96-2.42,1.49-1.61,2.24-3.93,2.24-6.96v-27.54h7.49v27.54c0,5.19-1.36,9.09-4.07,11.71-2.71,2.61-6.84,3.92-12.38,3.92h-3.19Z"/>
        <path class="cls-1" d="M595.72,42.37c.16,0,.24.08.24.24v5.72c0,.2-.1.29-.29.29h-15.1V3.81h7.61v38.57h7.55Z"/>
        <path class="cls-1" d="M609.75,62.72c-1.14,0-2.04-.35-2.71-1.06-.67-.71-1-1.69-1-2.95s.32-2.19.97-2.92c.65-.73,1.56-1.09,2.74-1.09s2.09.36,2.74,1.09c.65.73.97,1.7.97,2.92s-.33,2.19-1,2.92c-.67.73-1.57,1.09-2.71,1.09Z"/>
        <path class="cls-1" d="M595.07,48.62c-.2,0-.29-.1-.29-.29v-5.72c0-.2.1-.29.29-.29h24.3c-.75-.67-1.43-1.78-2.04-3.33-.61-1.55-1.13-3.49-1.56-5.81-.39-1.97-.88-3.52-1.44-4.66-.57-1.14-1.32-1.97-2.24-2.48-.92-.51-2.09-.77-3.51-.77s-2.71.19-4.01.56c-1.3.37-2.65.95-4.07,1.74l-2.48-5.66c1.73-1.02,3.57-1.76,5.51-2.21,1.95-.45,4.04-.68,6.28-.68,1.1,0,2.12.07,3.07.21s1.81.38,2.59.74c2.04.75,3.65,1.97,4.81,3.66,1.16,1.69,1.99,4.07,2.51,7.13.39,2.08.8,3.89,1.21,5.43.41,1.53.88,2.81,1.39,3.83s1.06,1.83,1.65,2.42v6.19h-31.96Z"/>
        <path class="cls-1" d="M649.44,48.62v1.12c0,2.63-.47,4.93-1.42,6.9-.94,1.97-2.28,3.48-4.01,4.54-1.73,1.06-3.81,1.59-6.25,1.59-1.65,0-3.21-.21-4.69-.62-1.47-.41-3-1.13-4.57-2.15l2.89-5.13c.98.59,1.85.98,2.6,1.18.75.2,1.61.29,2.59.29,1.61,0,2.91-.64,3.89-1.92.98-1.28,1.47-2.9,1.47-4.87v-29.96h7.49v22.76h7.55c.2,0,.29.08.29.24v5.72c0,.2-.1.29-.29.29h-7.55Z"/>
        <path class="cls-1" d="M664.3,42.37c-.94-.75-1.73-1.82-2.36-3.21-.63-1.39-.94-3-.94-4.81,0-2.56.58-4.81,1.74-6.75,1.16-1.95,2.72-3.47,4.69-4.57,1.96-1.1,4.15-1.65,6.55-1.65,2.67,0,4.95.53,6.84,1.59s3.33,2.55,4.33,4.45c1,1.91,1.5,4.16,1.5,6.75v8.2h8.08v-11.15c0-5.11-1.23-8.97-3.69-11.59s-6.12-3.92-11-3.92c-2.59,0-4.94.17-7.05.5-2.1.33-4.14.86-6.1,1.56l-1.83-6.01c1.65-.55,3.27-.99,4.87-1.33,1.59-.33,3.22-.59,4.89-.77,1.67-.18,3.41-.26,5.22-.26,7.31,0,12.84,1.83,16.57,5.48,3.73,3.66,5.6,8.88,5.6,15.69v11.79h7.49c.2,0,.29.08.29.24v5.72c0,.2-.1.29-.29.29h-53.31c-.2,0-.29-.1-.29-.29v-5.72c0-.16.1-.24.29-.24h7.9ZM676.27,42.37h2.89v-7.67c0-2.32-.43-4.01-1.3-5.07s-2.18-1.59-3.95-1.59c-1.53,0-2.77.58-3.71,1.74-.94,1.16-1.42,2.68-1.42,4.57,0,1.69.29,3.14.88,4.33.59,1.2,1.44,2.11,2.57,2.74,1.12.63,2.47.94,4.04.94Z"/>
        <path class="cls-1" d="M709.12,48.62c-.2,0-.29-.1-.29-.29v-5.72c0-.16.1-.24.29-.24h6.9c-.59-1.45-1.04-2.91-1.36-4.36-.32-1.45-.47-2.93-.47-4.42,0-1.69.25-3.46.77-5.31.51-1.85,1.16-3.48,1.95-4.89,1.77-1.14,3.67-2.01,5.72-2.62,2.04-.61,3.93-.91,5.66-.91,1.3,0,2.54.14,3.71.41s2.3.69,3.36,1.24c2.08,1.14,3.7,2.74,4.84,4.81,1.14,2.06,1.71,4.45,1.71,7.17,0,1.49-.16,2.91-.47,4.25-.32,1.34-.81,2.58-1.47,3.71-1.34,2.28-3.17,4.05-5.48,5.31-2.32,1.26-4.91,1.89-7.78,1.89h-17.57ZM721.38,34.06c0,1.26.14,2.58.41,3.95.27,1.38.69,2.83,1.24,4.36h2.89c1.65,0,3.1-.37,4.33-1.12,1.24-.75,2.21-1.8,2.92-3.16.71-1.36,1.06-2.92,1.06-4.69,0-2.2-.57-3.98-1.71-5.34-1.14-1.36-2.6-2.04-4.36-2.04-.98,0-1.99.17-3.01.5-1.02.33-2.01.82-2.95,1.44-.28.94-.48,1.92-.62,2.92-.14,1-.21,2.05-.21,3.16Z"/>
      </g>
      <g>
        <path class="cls-1" d="M569.68,119.63c0-1.69.3-3.17.91-4.45.61-1.28,1.47-2.26,2.59-2.95,1.12-.69,2.45-1.03,3.98-1.03h.18c-.59-1.45-1.03-2.93-1.33-4.42s-.44-2.97-.44-4.42c0-1.73.25-3.53.77-5.4.51-1.87,1.16-3.47,1.95-4.81,1.65-1.1,3.51-1.96,5.57-2.59,2.06-.63,4-.94,5.81-.94,1.3,0,2.54.14,3.71.41s2.28.69,3.3,1.24c2.08,1.14,3.71,2.75,4.87,4.83,1.16,2.08,1.74,4.46,1.74,7.14,0,1.49-.16,2.91-.47,4.25-.32,1.34-.81,2.58-1.47,3.71-1.34,2.28-3.17,4.05-5.48,5.31-2.32,1.26-4.91,1.89-7.78,1.89h-6.31c-1.65,0-2.83.35-3.54,1.06s-1.06,1.85-1.06,3.42v14.39h-7.49v-16.63ZM582.77,102.83c0,1.26.13,2.58.38,3.95.25,1.38.68,2.83,1.27,4.36h2.89c1.65,0,3.1-.37,4.33-1.12,1.24-.75,2.21-1.8,2.92-3.16.71-1.36,1.06-2.92,1.06-4.69,0-2.24-.57-4.03-1.71-5.37-1.14-1.34-2.6-2.01-4.36-2.01-.98,0-1.98.17-2.98.5-1,.33-2,.82-2.98,1.44-.31.94-.53,1.92-.65,2.92-.12,1-.18,2.05-.18,3.16Z"/>
        <path class="cls-1" d="M621.1,112.08l-7.84-31.55h7.96l7.49,31.55h-7.61Z"/>
        <path class="cls-1" d="M635.13,111.14v-38.57h7.61v38.57h7.67c.2,0,.29.08.29.24v5.72c0,.2-.1.29-.29.29h-41.04v-6.25h25.77Z"/>
        <path class="cls-1" d="M667.98,82.36c-1.18,0-2.1-.35-2.77-1.06-.67-.71-1-1.69-1-2.95s.33-2.24,1-2.95c.67-.71,1.59-1.06,2.77-1.06s2.03.36,2.68,1.09c.65.73.97,1.7.97,2.92s-.33,2.19-.97,2.92c-.65.73-1.54,1.09-2.68,1.09Z"/>
        <path class="cls-1" d="M649.82,117.39c-.2,0-.29-.1-.29-.29v-5.72c0-.16.1-.24.29-.24h8.61c-.63-.75-1.16-1.56-1.59-2.45s-.76-1.81-.97-2.77c-.22-.96-.32-1.94-.32-2.92,0-2.99.67-5.57,2-7.75,1.34-2.18,3.26-3.87,5.78-5.07,2.51-1.2,5.54-1.8,9.08-1.8h9.55v29.01h-32.14ZM671.46,111.14h2.95v-16.51h-1.83c-1.97,0-3.65.33-5.04,1-1.4.67-2.46,1.64-3.18,2.92-.73,1.28-1.09,2.86-1.09,4.75,0,1.65.31,3.07.94,4.25.63,1.18,1.55,2.07,2.77,2.68,1.22.61,2.71.91,4.48.91Z"/>
        <path class="cls-1" d="M689.33,72.16l3.18-.53c-.75-.39-1.35-.92-1.8-1.59-.45-.67-.68-1.43-.68-2.3,0-1.69.58-3.01,1.74-3.95s2.68-1.42,4.57-1.42,3.32.33,4.54,1l-1.06,2.89c-.47-.24-.97-.41-1.5-.53-.53-.12-1.07-.18-1.62-.18-.87,0-1.56.25-2.09.74-.53.49-.8,1.21-.8,2.15,0,.63.17,1.17.5,1.62.33.45.76.8,1.27,1.03.94-.16,1.79-.29,2.54-.38.75-.1,1.4-.19,1.95-.27.55-.08,1-.12,1.36-.12v3.24c-.71.04-1.63.13-2.77.27-1.14.14-2.34.28-3.6.41-1.26.14-2.4.28-3.42.41-1.02.14-1.79.27-2.3.38v-2.89Z"/>
        <path class="cls-1" d="M701.36,112.08l-7.84-31.55h7.96l7.49,31.55h-7.61Z"/>
        <path class="cls-1" d="M709.55,111.14c2,0,3.48-.55,4.42-1.65.94-1.1,1.42-2.83,1.42-5.19v-31.73h7.61v32.43c0,3.77-1.07,6.78-3.21,9.02s-5.06,3.36-8.76,3.36h-21.41v-6.25h19.93Z"/>
        <path class="cls-1" d="M734.2,72.58h7.61v44.82h-7.61v-44.82Z"/>
      </g>
      <g>
        <path class="cls-1" d="M855.68,117.39h-32.02v-41.05h32.02v41.05ZM846.71,109.39v-25.04h-14.09v25.04h14.09Z"/>
        <path class="cls-1" d="M875.73,84.35h-12.79v-8.01h21.76v7.53c0,11.36-5.41,16.56-16.42,16.56v-7.53c5.34,0,7.46-2.33,7.46-8.55Z"/>
        <path class="cls-1" d="M908.71,118.15c-9.99-.07-16.15-5.95-16.15-15.39v-26.41h8.96v26.21c0,4.52,2.74,7.32,7.18,7.32s7.18-2.8,7.18-7.32v-18.2h-7.59v-8.01h16.56v26.41c0,9.51-6.16,15.39-16.15,15.39Z"/>
        <path class="cls-1" d="M960.03,117.39h-9.03v-33.05h-18.68v-8.01h27.71v41.05Z"/>
        <path class="cls-1" d="M1000.81,91.26v11.29c0,9.78-6.16,15.74-16.35,15.74s-16.35-5.95-16.35-15.74v-11.29c0-9.92,6.23-15.8,16.35-15.8s16.35,5.88,16.35,15.8ZM984.46,110.21c4.65,0,7.46-2.87,7.46-7.73v-10.95c0-4.99-2.8-8-7.46-8s-7.39,3.01-7.39,8v10.95c0,4.86,2.81,7.73,7.39,7.73Z"/>
        <path class="cls-1" d="M1008.34,76.34h31.13v41.05h-8.96v-33.05h-22.17v-8.01ZM1017.51,93.58v23.81h-8.96v-23.81h8.96Z"/>
      </g>
      <g>
        <path class="cls-1" d="M834.13,7.57h21.42v8.01l-15.19,33.05h-9.44l15.19-33.05h-20.94V2.78h8.96v4.79Z"/>
        <path class="cls-1" d="M862.4,48.62v-8h18.82V15.58h-18.82V7.57h27.78v33.05h4.79v8h-32.57Z"/>
        <path class="cls-1" d="M910.77,15.58h-12.79V7.57h21.76v7.53c0,11.36-5.41,16.56-16.42,16.56v-7.53c5.34,0,7.46-2.33,7.46-8.55Z"/>
        <path class="cls-1" d="M943.75,49.38c-9.99-.07-16.15-5.95-16.15-15.39V7.57h8.96v26.21c0,4.52,2.74,7.32,7.18,7.32s7.18-2.8,7.18-7.32V15.58h-7.59V7.57h16.56v26.41c0,9.51-6.16,15.39-16.15,15.39Z"/>
        <path class="cls-1" d="M1000.48,22.49v11.29c0,9.78-6.16,15.74-16.35,15.74s-16.35-5.95-16.35-15.74v-11.29c0-9.92,6.23-15.8,16.35-15.8s16.35,5.88,16.35,15.8ZM984.13,41.44c4.65,0,7.46-2.87,7.46-7.73v-10.95c0-4.99-2.81-8-7.46-8s-7.39,3.01-7.39,8v10.95c0,4.86,2.8,7.73,7.39,7.73Z"/>
        <path class="cls-1" d="M1008.01,40.62h23.19v-17.65c0-4.72-2.8-7.73-7.25-7.73s-7.18,3.01-7.18,7.73v2.8h6.91v7.73h-15.67v-10.74c0-9.78,6.16-15.87,16.01-15.87,9.92-.07,16.01,6.02,16.01,15.87v25.86h-32.02v-8Z"/>
      </g>
      <polygon class="cls-1" points="564.55 185.97 560.42 185.97 492.69 7.72 497.54 7.72 564.55 185.97"/>
      <polygon class="cls-1" points="829.18 185.97 825.05 185.97 757.32 7.72 762.17 7.72 829.18 185.97"/>
    </g>
  </g>
</svg>