<?xml version="1.0" encoding="UTF-8"?>
<svg id="Layer_2" data-name="Layer 2" xmlns="http://www.w3.org/2000/svg" xmlns:xlink="http://www.w3.org/1999/xlink" viewBox="0 0 632.13 595.28">
  <defs>
    <style>
      .cls-1 {
        fill: #231f20;
      }

      .cls-2 {
        fill: none;
      }

      .cls-3 {
        fill: #8cb8e2;
      }

      .cls-4 {
        clip-path: url(#clippath);
      }
    </style>
    <clipPath id="clippath">
      <rect class="cls-2" width="632.13" height="595.28"/>
    </clipPath>
  </defs>
  <g id="Layer_1-2" data-name="Layer 1">
    <g>
      <path class="cls-1" d="M161.45,446.75c1.7,0,2.43.74,2.43,2.49v2.69h-.81v-2.69c0-1.23-.49-1.8-1.63-1.8h-1.27v3.32c0,.84-.45,1.23-1.11,1.23-.3,0-.72-.06-.96-.15l.11-.64c.17.06.35.1.6.1.4,0,.55-.23.55-.76v-3.09h-.74v-.69h2.83ZM165.01,446.75h.81v2.93l-.81.14v-3.07ZM171.1,451.93h-.79v-2.64c0-1.31-.66-1.95-1.73-1.95-.6,0-1.1.18-1.59.44l-.28-.58c.69-.38,1.35-.52,2-.52,1.39,0,2.38.78,2.38,2.57v2.68ZM173.27,446.75v5.18h-.81v-5.18h.81ZM178.77,451.24h.77v.69h-5.08v-.69h3.5v-2.06c0-1.09-.48-1.84-1.58-1.84-.64,0-1.2.21-1.74.5l-.27-.6c.68-.4,1.4-.59,2.13-.59,1.62,0,2.27.95,2.27,2.48v2.12ZM180.03,446.75h.81v2.93l-.81.14v-3.07ZM186.38,451.85v.08h-4.47v-.69h3.14l-3.38-4.47v-.03h.91l1.92,2.57c.66-.32,1.02-1.13.97-2.57h.79c.05,1.73-.43,2.71-1.35,3.13l1.48,1.98ZM190.13,446.75h2.23c1.69,0,2.47.81,2.47,2.59v2.59h-.81v-2.59c0-1.32-.51-1.9-1.66-1.9h-2.23v-.69ZM190.19,449.16l.81-.11v2.88h-.81v-2.76ZM200.02,451.93h-.79v-2.64c0-1.31-.66-1.95-1.73-1.95-.6,0-1.1.18-1.59.44l-.28-.58c.69-.38,1.35-.52,2-.52,1.39,0,2.38.78,2.38,2.57v2.68ZM202.19,446.75v5.18h-.81v-5.18h.81ZM207.68,451.24h.77v.69h-5.08v-.69h3.5v-2.06c0-1.09-.48-1.84-1.58-1.84-.64,0-1.2.21-1.74.5l-.27-.6c.68-.4,1.4-.59,2.13-.59,1.62,0,2.27.95,2.27,2.48v2.12ZM211.69,446.75c1.66,0,2.44.77,2.44,2.47v2.71h-.81v-2.71c0-1.19-.51-1.78-1.62-1.78h-1.56v4.49h-.81v-5.18h2.38ZM218.22,446.75c1.7,0,2.43.74,2.43,2.49v2.69h-.81v-2.69c0-1.23-.49-1.8-1.63-1.8h-1.27v3.32c0,.84-.45,1.23-1.11,1.23-.3,0-.72-.06-.96-.15l.11-.64c.17.06.35.1.6.1.4,0,.55-.23.55-.76v-3.09h-.74v-.69h2.83Z"/>
      <path class="cls-1" d="M145.55,467.15c1.7,0,2.43.73,2.43,2.33v2.85h-4.89v-5.18h2.46ZM143.9,471.64h3.26v-2.1c0-1.17-.49-1.7-1.62-1.7h-1.64v3.8ZM149.12,467.15h.81v2.93l-.81.14v-3.07ZM151.78,467.15h3.57v.09l-1.99,5.1h-.86v-.03l1.77-4.46h-3.31v-1.55h.81v.86ZM156.98,467.15c.94,0,1.42.47,1.42,1.37v3.81h-.62l-.12-1.15h-.03c-.24.69-.75,1.15-1.52,1.15h-.35v-.76h.35c.99,0,1.51-.76,1.51-1.55v-1.34c0-.56-.26-.85-.79-.85h-.57v-.69h.72ZM160.17,467.15h3.57v.09l-1.99,5.1h-.86v-.03l1.77-4.46h-3.31v-1.55h.81v.86ZM165.38,467.15c.94,0,1.42.47,1.42,1.37v3.81h-.62l-.12-1.15h-.03c-.24.69-.75,1.15-1.52,1.15h-.35v-.76h.35c.99,0,1.51-.76,1.51-1.55v-1.34c0-.56-.26-.85-.79-.85h-.57v-.69h.72ZM173.5,467.15c1.7,0,2.43.74,2.43,2.49v2.69h-.81v-2.69c0-1.23-.49-1.8-1.63-1.8h-1.27v3.32c0,.84-.45,1.23-1.11,1.23-.3,0-.72-.06-.96-.15l.11-.64c.17.06.35.1.6.1.4,0,.55-.23.55-.76v-3.09h-.74v-.69h2.83ZM178.09,467.15v5.18h-.81v-5.18h.81ZM184.33,472.3v.03h-.91l-2.34-2.92c-.68.38-1.02,1.17-.98,2.92h-.81c-.04-2.07.43-2.98,1.36-3.45l-1.36-1.7v-.03h.91l2.34,2.91c.68-.38,1.01-1.17.98-2.91h.81c.04,2.06-.43,2.98-1.36,3.45l1.36,1.7ZM187.94,467.15c1.6,0,2.5.94,2.5,2.55s-.96,2.74-2.5,2.74-2.51-1.06-2.51-2.74v-2.55h2.51ZM189.63,469.7c0-1.15-.6-1.86-1.69-1.86h-1.7v1.86c0,1.24.64,2.05,1.7,2.05s1.69-.8,1.69-2.05ZM191.53,467.15h.81v2.93l-.81.14v-3.07ZM197.72,469.74c0,1.63-1.02,2.68-2.58,2.68-.72,0-1.29-.18-1.81-.53l.26-.57c.41.25.86.43,1.45.43,1.14,0,1.87-.8,1.87-2.01s-.73-2.01-1.87-2.01c-.59,0-1.05.18-1.45.44l-.26-.58c.52-.35,1.09-.53,1.81-.53,1.56,0,2.58,1.05,2.58,2.68ZM199.07,467.15h3.57v.09l-1.99,5.1h-.86v-.03l1.77-4.46h-3.31v-1.55h.81v.86ZM211.14,467.15h.81v2.35c0,1.81-1.12,2.94-2.95,2.94s-2.95-1.12-2.95-2.94v-2.35h.81v2.37c0,1.36.83,2.23,2.14,2.23s2.14-.86,2.14-2.23v-2.37ZM209.4,467.15v2.97l-.81.17v-3.14h.81ZM213.2,467.15h.81v2.93l-.81.14v-3.07ZM215.86,467.15c.94,0,1.42.47,1.42,1.37v3.81h-.62l-.12-1.15h-.03c-.24.69-.75,1.15-1.52,1.15h-.35v-.76h.35c.99,0,1.51-.76,1.51-1.55v-1.34c0-.56-.26-.85-.79-.85h-.57v-.69h.72ZM218.36,472.33v-.69h1.46v-2.74c0-.72-.22-1.06-.79-1.06h-.48v-.69h.72c.97,0,1.36.52,1.36,1.55v3.64h-2.27Z"/>
      <path class="cls-1" d="M108.83,487.77v6.68h-.81v-6.68h.81ZM111.07,487.77v5.18h-.81v-5.18h.81ZM117.31,492.92v.03h-.91l-2.34-2.92c-.68.38-1.02,1.17-.98,2.92h-.81c-.04-2.07.43-2.98,1.36-3.45l-1.36-1.7v-.03h.91l2.34,2.91c.68-.38,1.01-1.17.98-2.91h.81c.04,2.06-.43,2.98-1.36,3.45l1.36,1.7ZM118.43,487.77h.81v2.93l-.81.14v-3.07ZM123.33,488.46c-1.66,0-2.11,1.14-.91,4.49h-.86c-.87-2.49-.84-4.07.41-4.49h-1.68v-.69h3.04v.69ZM125.13,487.77v5.18h-.81v-5.18h.81ZM131.93,490.34c0,2.17-1.3,3.17-3.3,2.42l.18-.66c1.53.6,2.35-.12,2.35-1.76,0-1.17-.64-1.93-1.51-1.93-.96,0-1.44.94-1.75,2.08l-.67,2.46h-.8l.67-2.43-.93-2.76h.8l.56,1.75c.35-1.02,1.04-1.83,2.09-1.83,1.39,0,2.31,1.09,2.31,2.64ZM132.99,487.77h2.23c1.69,0,2.47.81,2.47,2.59v2.59h-.81v-2.59c0-1.32-.51-1.9-1.66-1.9h-2.23v-.69ZM133.05,490.19l.81-.11v2.88h-.81v-2.76ZM144.39,487.77c1.7,0,2.43.74,2.43,2.49v2.69h-.81v-2.69c0-1.23-.49-1.8-1.63-1.8h-1.27v3.32c0,.84-.45,1.23-1.11,1.23-.3,0-.72-.06-.96-.15l.11-.64c.17.06.35.1.6.1.4,0,.55-.23.55-.76v-3.09h-.74v-.69h2.83ZM152.15,492.26h.77v.69h-5.08v-.69h3.5v-2.06c0-1.09-.48-1.84-1.58-1.84-.64,0-1.2.21-1.74.5l-.27-.6c.68-.4,1.4-.59,2.13-.59,1.62,0,2.27.95,2.27,2.48v2.12ZM157.38,492.95h-.79v-2.64c0-1.31-.66-1.95-1.73-1.95-.6,0-1.1.18-1.59.44l-.28-.58c.69-.38,1.35-.52,2-.52,1.39,0,2.38.78,2.38,2.57v2.68ZM158.71,487.77h4.76v3c0,1.68-.73,2.25-1.82,2.25-.39,0-.71-.04-1.05-.15l.1-.67c.27.08.58.13.85.13.79,0,1.14-.41,1.14-1.63v-2.23h-3.97v-.69ZM159.55,489.96v4.5h-.79v-4.4l.79-.1ZM168.92,492.26h.77v.69h-5.08v-.69h3.5v-2.06c0-1.09-.48-1.84-1.58-1.84-.64,0-1.2.21-1.74.5l-.27-.6c.68-.4,1.4-.59,2.13-.59,1.62,0,2.27.95,2.27,2.48v2.12ZM175.89,487.77c1.7,0,2.43.74,2.43,2.49v2.69h-.81v-2.69c0-1.23-.49-1.8-1.63-1.8h-1.27v3.32c0,.84-.45,1.23-1.11,1.23-.3,0-.72-.06-.96-.15l.11-.64c.17.06.35.1.6.1.4,0,.55-.23.55-.76v-3.09h-.74v-.69h2.83ZM179.45,487.77h.81v2.93l-.81.14v-3.07ZM185.55,492.95h-.79v-2.64c0-1.31-.66-1.95-1.73-1.95-.6,0-1.1.18-1.59.44l-.28-.58c.69-.38,1.35-.52,2-.52,1.39,0,2.38.78,2.38,2.57v2.68ZM187.72,487.77v5.18h-.81v-5.18h.81ZM193.21,492.26h.77v.69h-5.08v-.69h3.5v-2.06c0-1.09-.48-1.84-1.58-1.84-.64,0-1.2.21-1.74.5l-.27-.6c.68-.4,1.4-.59,2.13-.59,1.62,0,2.27.95,2.27,2.48v2.12ZM194.47,487.77h.81v2.93l-.81.14v-3.07ZM200.82,492.88v.08h-4.47v-.69h3.14l-3.38-4.47v-.03h.91l1.92,2.57c.66-.32,1.02-1.13.97-2.57h.79c.05,1.73-.43,2.71-1.35,3.13l1.48,1.98ZM204.57,487.77h2.23c1.69,0,2.47.81,2.47,2.59v2.59h-.81v-2.59c0-1.32-.51-1.9-1.66-1.9h-2.23v-.69ZM204.63,490.19l.81-.11v2.88h-.81v-2.76ZM210.42,487.77h.81v2.93l-.81.14v-3.07ZM212.2,492.95v-.69h1.46v-2.74c0-.72-.22-1.06-.79-1.06h-.48v-.69h.72c.97,0,1.36.52,1.36,1.55v3.64h-2.27ZM218.21,487.77c1.66,0,2.44.77,2.44,2.47v2.71h-.81v-2.71c0-1.19-.51-1.78-1.62-1.78h-1.56v4.49h-.81v-5.18h2.38Z"/>
      <path class="cls-1" d="M113.44,513.79h-.79v-2.64c0-1.31-.66-1.95-1.73-1.95-.6,0-1.1.18-1.59.44l-.28-.58c.69-.38,1.35-.52,2-.52,1.39,0,2.38.78,2.38,2.57v2.68ZM118.79,513.71v.08h-4.47v-.69h3.14l-3.38-4.47v-.03h.91l1.92,2.57c.66-.32,1.02-1.13.97-2.57h.79c.05,1.73-.43,2.71-1.35,3.13l1.48,1.98ZM119.95,508.61h4.76v3c0,1.68-.73,2.25-1.82,2.25-.39,0-.71-.04-1.05-.15l.1-.67c.27.08.58.13.85.13.79,0,1.14-.41,1.14-1.63v-2.23h-3.97v-.69ZM120.79,510.79v4.5h-.79v-4.4l.79-.1ZM128.65,508.61h2.23c1.69,0,2.47.81,2.47,2.59v2.59h-.81v-2.59c0-1.32-.51-1.9-1.66-1.9h-2.23v-.69ZM128.71,511.02l.81-.11v2.88h-.81v-2.76ZM138.79,511.2c0,1.63-1.06,2.68-2.63,2.68-.71,0-1.27-.17-1.71-.46l.27-.58c.32.21.77.37,1.36.37,1.14,0,1.91-.8,1.91-2.01s-.77-2.01-1.89-2.01c-.64,0-1.11.17-1.62.53l-.29-.54c.65-.47,1.24-.65,1.98-.65,1.57,0,2.63,1.05,2.63,2.68ZM139.85,508.61h.81v2.93l-.81.14v-3.07ZM142.51,508.61h3.57v.09l-1.99,5.1h-.86v-.03l1.77-4.46h-3.31v-1.55h.81v.86ZM147.01,508.61h2.23c1.69,0,2.47.81,2.47,2.59v2.59h-.81v-2.59c0-1.32-.51-1.9-1.66-1.9h-2.23v-.69ZM147.07,511.02l.81-.11v2.88h-.81v-2.76ZM155.63,508.61h4.76v3c0,1.68-.73,2.25-1.82,2.25-.39,0-.71-.04-1.05-.15l.1-.67c.27.08.58.13.85.13.79,0,1.14-.41,1.14-1.63v-2.23h-3.97v-.69ZM156.47,510.79v4.5h-.79v-4.4l.79-.1ZM164.15,508.61c1.66,0,2.44.77,2.44,2.47v2.71h-.81v-2.71c0-1.19-.51-1.78-1.62-1.78h-1.56v4.49h-.81v-5.18h2.38ZM171.77,513.79h-.79v-2.64c0-1.31-.66-1.95-1.73-1.95-.6,0-1.1.18-1.59.44l-.28-.58c.69-.38,1.35-.52,2-.52,1.39,0,2.38.78,2.38,2.57v2.68ZM178.38,511.17c0,2.17-1.3,3.17-3.3,2.42l.18-.66c1.53.6,2.35-.12,2.35-1.76,0-1.17-.64-1.93-1.51-1.93-.96,0-1.44.94-1.75,2.08l-.67,2.46h-.8l.67-2.43-.93-2.76h.8l.56,1.75c.35-1.02,1.04-1.83,2.09-1.83,1.39,0,2.31,1.09,2.31,2.64ZM183.34,513.1h.77v.69h-5.08v-.69h3.5v-2.06c0-1.09-.48-1.84-1.58-1.84-.64,0-1.2.21-1.74.5l-.27-.6c.68-.4,1.4-.59,2.13-.59,1.62,0,2.27.95,2.27,2.48v2.12ZM187.52,508.61h2.23c1.69,0,2.47.81,2.47,2.59v2.59h-.81v-2.59c0-1.32-.51-1.9-1.66-1.9h-2.23v-.69ZM187.58,511.02l.81-.11v2.88h-.81v-2.76ZM198.14,511.15c0,1.65-.99,2.73-2.77,2.73-.66,0-1.29-.09-1.89-.35l.2-.63c.54.22,1.1.3,1.68.3,1.23,0,1.97-.81,1.97-2.05,0-1.15-.67-1.96-1.81-1.96-.86,0-1.47.43-1.47,1.11s.58,1.03,1.42.97l-.03.63c-1.3.11-2.2-.6-2.2-1.6,0-1.17.98-1.8,2.28-1.8,1.67,0,2.62,1.08,2.62,2.64ZM199.23,508.61h4.76v3c0,1.68-.73,2.25-1.82,2.25-.39,0-.71-.04-1.05-.15l.1-.67c.27.08.58.13.85.13.79,0,1.14-.41,1.14-1.63v-2.23h-3.97v-.69ZM200.07,510.79v4.5h-.79v-4.4l.79-.1ZM207.9,508.61h.81v2.93l-.81.14v-3.07ZM212.59,508.61c1.7,0,2.43.74,2.43,2.49v2.69h-.81v-2.69c0-1.23-.49-1.8-1.63-1.8h-1.27v3.32c0,.84-.45,1.23-1.11,1.23-.3,0-.72-.06-.96-.15l.11-.64c.17.06.35.1.6.1.4,0,.55-.23.55-.76v-3.09h-.74v-.69h2.83ZM220.35,513.1h.77v.69h-5.08v-.69h3.5v-2.06c0-1.09-.48-1.84-1.58-1.84-.64,0-1.2.21-1.74.5l-.27-.6c.68-.4,1.4-.59,2.13-.59,1.62,0,2.27.95,2.27,2.48v2.12Z"/>
      <g class="cls-4">
        <path class="cls-3" d="M242.94,451.21c.39-.93.6-1.86.62-2.87.01-.68-.04-1.34-.2-2.01-.6-2.62-2.56-4.79-5.17-5.57-2.43-.73-5.1-.25-7.11,1.26-1.99,1.49-3.05,3.9-2.97,6.34.1,3.39,2.41,6.35,5.74,7.25.75.2,1.52.28,2.3.26,3-.1,5.64-1.91,6.79-4.65M243.82,446.12c.68,2.78-.09,5.72-2.06,7.76-2.91,3.02-7.68,3.31-10.97.73-2.39-1.87-3.56-4.88-3.05-7.88.29-1.72,1.09-3.3,2.36-4.52,1.8-1.73,4.47-2.55,6.96-2.21,1.29.17,2.48.63,3.54,1.38,1.61,1.15,2.75,2.82,3.22,4.74"/>
        <path class="cls-3" d="M238.92,452.98c.06-.02.14-.11.14-.16v-.41s-1.3,0-1.3,0v.35c0,.12.07.22.21.22h.95ZM233.79,452.98c.07-.04.14-.14.14-.2v-.38s-1.3,0-1.3,0v.4c0,.07.1.17.17.17h.99ZM240.63,447.35v-1.02c0-.12-.1-.22-.22-.22h-.28s0,1.48,0,1.48h.32c.11,0,.18-.13.18-.24M231.26,447.59h.31s0-1.48,0-1.48h-.32c-.09,0-.18.12-.18.22v1c0,.11.06.26.19.26M239.08,451.94c.36,0,.6-.25.59-.59v-6.46c-.01-.79-.69-1.32-1.44-1.35-1.69-.08-3.33-.15-5.01.03-.65.07-1.2.63-1.2,1.28v6.51c-.01.27.18.58.5.58h6.56ZM237.31,452.4h-2.95s-.01.48-.01.48c0,.31-.32.55-.62.54h-.97c-.31,0-.57-.29-.57-.58v-.54c-.37-.17-.62-.5-.62-.91v-3.33c-.5.04-.95-.2-.95-.62v-1.18c0-.42.45-.65.94-.6,0-.3-.01-.58.01-.88.06-.83.74-1.53,1.58-1.65.96-.14,1.9-.15,2.88-.14.84,0,1.66.02,2.48.14.96.14,1.62.94,1.61,1.88v.65s.42.03.42.03c.31.02.52.31.51.61v1.18c0,.28-.29.54-.56.56l-.38.03v3.4c0,.39-.29.69-.61.85l-.03.59c-.01.32-.32.53-.63.53h-.9c-.34,0-.63-.25-.64-.59v-.43Z"/>
        <path class="cls-3" d="M238.22,448.6c.24,0,.49-.18.49-.41v-2.05c0-.33-.24-.5-.55-.5h-4.62c-.33,0-.56.2-.56.53v1.94c0,.25.21.48.49.48h4.75ZM238.25,449.06h-4.78c-.49,0-.93-.42-.93-.9v-2.06c0-.46.43-.9.91-.9h4.82c.54,0,.89.54.89,1.01v1.84c0,.5-.34,1.01-.91,1.01"/>
        <path class="cls-3" d="M238.22,450.08c-.24.06-.37.29-.3.51.06.2.28.33.5.27.22-.06.35-.28.3-.49-.05-.21-.27-.35-.49-.3M238.13,449.66c.48-.11.91.2,1.01.64.1.44-.19.88-.64.99-.44.11-.88-.16-1-.59-.12-.44.14-.92.63-1.04"/>
        <path class="cls-3" d="M233.28,450.08c-.25.07-.35.31-.29.5.08.24.3.33.52.27.21-.06.34-.28.28-.49-.06-.21-.28-.34-.51-.28M233.23,449.66c.48-.1.9.22.99.66.09.45-.21.89-.68.98-.42.08-.87-.2-.98-.64-.1-.43.17-.9.67-1"/>
        <path class="cls-3" d="M237.07,444.58h-2.48c-.11,0-.21-.17-.21-.25,0-.1.1-.26.23-.26h2.51c.13,0,.22.16.22.26,0,.13-.11.25-.28.25"/>
        <path class="cls-3" d="M236.94,450.77h-2.13c-.12,0-.23-.15-.23-.24,0-.14.11-.24.26-.24h2.01c.13,0,.24.07.27.18.03.09-.03.31-.19.31"/>
        <path class="cls-3" d="M241.98,473.52c1.43-1.87,1.9-4.38,1.37-6.64-.33-1.37-1.05-2.61-2.04-3.61-1.3-1.32-3.01-2.07-4.86-2.21-1.55-.11-3.05.24-4.42.96-1.34.71-2.4,1.83-3.07,3.17-1.31,2.6-1.11,5.72.61,8.07,1,1.36,2.4,2.37,4.02,2.87,3.07.95,6.43-.08,8.38-2.63M241.27,474.99c-1.99,1.73-4.68,2.38-7.24,1.78-3.21-.75-5.7-3.33-6.28-6.54-.64-3.56,1.12-7.32,4.5-8.87,1.21-.55,2.51-.85,3.85-.82,1.81.04,3.53.65,4.91,1.79,1.39,1.14,2.39,2.67,2.81,4.41.72,2.94-.23,6.21-2.56,8.24"/>
        <path class="cls-3" d="M235.16,464.97c.28-.35.2-.82-.11-1.1-.3-.26-.75-.28-1.09-.02-.4.31-.4.88-.05,1.22.35.34.92.32,1.25-.1M238.04,469.49l1.44,3.15.95-.37c.1-.04.24.04.28.12.04.07.01.26-.1.3l-1.12.45c-.13.07-.29.04-.35-.1l-1.54-3.33h-3.12c-.14,0-.25-.11-.25-.25v-3.71c-.68-.15-1.13-.77-1.04-1.42.09-.67.67-1.17,1.38-1.15.73.06,1.26.66,1.25,1.38-.06.6-.48,1.07-1.09,1.2v1.96s2.39,0,2.39,0c.14.01.23.12.24.25,0,.11-.11.24-.24.24h-2.39s0,1.03,0,1.03h2.96c.2,0,.28.08.36.26"/>
        <path class="cls-3" d="M237.36,471.94c.05-.12.21-.14.3-.12.08.01.22.16.17.27-.6,1.39-2.11,2.2-3.63,1.92-1.54-.28-2.64-1.59-2.69-3.13-.04-1.19.57-2.28,1.58-2.88.14-.08.3-.05.36.06.09.16.01.27-.13.36-1.19.71-1.65,2.18-1.12,3.44.43,1.03,1.42,1.7,2.53,1.72,1.12.02,2.14-.61,2.62-1.64"/>
        <path class="cls-3" d="M236.01,497.12c2.58-.03,5-1.39,6.34-3.53.9-1.44,1.3-3.07,1.2-4.76-.08-1.3-.48-2.5-1.17-3.6-1.71-2.72-4.91-4.07-8.09-3.4-2.17.46-3.97,1.67-5.08,3.56-1.11,1.88-1.38,4.08-.78,6.15.96,3.33,4.03,5.62,7.59,5.58M236.44,497.59c-3.1.21-6.08-1.34-7.64-3.97-1.91-3.21-1.46-7.32,1.15-10,1.1-1.13,2.53-1.87,4.08-2.23,2.47-.57,5.08,0,7.02,1.61,1.64,1.36,2.7,3.28,2.96,5.38.16,1.36-.02,2.68-.49,3.95-1.1,2.97-3.87,5.05-7.08,5.27"/>
        <path class="cls-3" d="M236.62,490.68c1.32,0,2.42-.71,2.71-1.96.33-1.4-.22-2.82-1.64-3.28-.42-.14-.84-.18-1.29-.18h-3.36c-.08,0-.15.07-.16.16v8.2s1.41,0,1.41,0v-2.72c.02-.1.11-.2.22-.2h2.11ZM236.72,491.14h-1.96s0,2.57,0,2.57c0,.2-.16.36-.36.36h-1.58c-.24,0-.39-.17-.39-.4v-8.32c0-.29.32-.53.59-.53h3.66c.4,0,.78.08,1.15.19.83.26,1.47.86,1.8,1.65.28.67.31,1.38.16,2.09-.17.83-.68,1.56-1.44,1.97-.5.27-1.04.43-1.63.43"/>
        <path class="cls-3" d="M237.55,487.94c.03-.6-.4-.99-.96-1.05h-1.83s0,2.13,0,2.13l1.87-.02c.57,0,.96-.52.92-1.07M236.64,489.46l-2.16.02c-.08,0-.18-.11-.18-.19v-2.63c0-.12.14-.22.26-.22h1.99c.42.01.84.2,1.12.5.32.35.4.82.33,1.28-.09.67-.63,1.23-1.35,1.24"/>
        <path class="cls-3" d="M240.36,516.53c1.05-.74,1.85-1.74,2.41-2.88,1.26-2.54,1.04-5.55-.58-7.88-.76-1.09-1.77-1.97-2.98-2.53-2.34-1.09-5.07-.97-7.32.29-1.61.91-2.8,2.4-3.38,4.15-.54,1.61-.54,3.3-.01,4.9.65,1.97,2.01,3.58,3.86,4.52,2.58,1.32,5.64,1.09,8-.58M240.89,516.74c-1.48,1.15-3.32,1.74-5.16,1.71-3.39-.05-6.36-2.2-7.56-5.35-.56-1.49-.7-3.07-.37-4.63.74-3.53,3.55-5.99,7.12-6.4,1.52-.17,3.02.06,4.41.69,3.57,1.61,5.5,5.78,4.45,9.59-.48,1.72-1.46,3.28-2.89,4.4"/>
        <path class="cls-3" d="M238.43,514.74c.55,0,1.06-.16,1.42-.6h-8.27c.27.4.67.51,1.1.6h5.75ZM238.95,512.33c.68-.28,1.34-.55,1.59-1.21.13-.39-.05-.79-.43-.97-.29-.14-.62-.09-.9.06v.99c-.01.4-.15.76-.26,1.14M237.14,513.68c.95-.45,1.62-1.56,1.62-2.55v-1.9s-6.56,0-6.56,0v1.9c0,1.09.66,2.06,1.62,2.55h3.33ZM240.36,514.04c-.18.7-1.09,1.15-1.72,1.15h-5.96c-.6,0-1.52-.51-1.62-1.17-.02-.17.1-.33.28-.34h1.65c-.74-.66-1.25-1.53-1.25-2.52v-1.9c0-.3.26-.5.55-.5h6.46c.24,0,.44.25.45.46l.02.5c.64-.26,1.37-.02,1.68.59.2.39.15.84-.06,1.22-.22.4-.57.65-.95.88l-1.27.52c-.19.27-.4.51-.67.74h2.1c.19-.01.36.14.31.36"/>
        <path class="cls-3" d="M234.11,508.22c-.07.1-.23.09-.3.03-.08-.08-.1-.22-.03-.31l.26-.34c.2-.26.12-.58-.1-.79-.4-.37-.43-.95-.09-1.35l.28-.34c.06-.08.25-.05.31.03.06.08.05.2-.03.3l-.27.34c-.19.24-.09.57.13.77.38.34.43.88.13,1.28l-.29.39Z"/>
        <path class="cls-3" d="M235.58,508.16c-.07.1-.19.15-.3.1-.09-.04-.16-.22-.08-.31l.26-.35c.19-.25.17-.56-.07-.77-.37-.35-.46-.9-.15-1.31l.3-.39c.06-.08.23-.07.29-.02.09.08.09.23,0,.33l-.27.34c-.2.25-.09.57.13.77.37.34.41.87.12,1.27l-.25.34Z"/>
        <path class="cls-3" d="M236.97,508.23c-.06.07-.24.06-.3,0-.06-.05-.09-.22-.04-.29l.27-.35c.2-.25.16-.56-.07-.77-.41-.38-.44-.98-.09-1.41l.25-.3c.06-.07.22-.07.29-.02.08.07.09.21.02.3l-.26.35c-.2.26-.11.59.11.79.37.35.4.89.11,1.29l-.29.39Z"/>
      </g>
    </g>
  </g>
</svg>