<?xml version="1.0" encoding="UTF-8"?>
<svg id="Layer_2" data-name="Layer 2" xmlns="http://www.w3.org/2000/svg" xmlns:xlink="http://www.w3.org/1999/xlink" viewBox="0 0 632.13 595.28">
  <defs>
    <style>
      .cls-1 {
        fill: #ecf4db;
      }

      .cls-2, .cls-3, .cls-4 {
        fill: none;
      }

      .cls-3 {
        stroke: #ecf4db;
        stroke-width: .72px;
      }

      .cls-3, .cls-4 {
        stroke-miterlimit: 10;
      }

      .cls-5 {
        clip-path: url(#clippath-1);
      }

      .cls-4 {
        stroke: #ecf4db;
        stroke-width: .36px;
      }

      .cls-6 {
        fill: #ecf4db;
      }

      .cls-7 {
        fill: #8cb8e2;
      }

      .cls-8 {
        clip-path: url(#clippath);
      }
    </style>
    <clipPath id="clippath">
      <rect class="cls-2" width="632.13" height="595.28"/>
    </clipPath>
    <clipPath id="clippath-1">
      <rect class="cls-2" x="29.62" y="36" width="560.13" height="523.28"/>
    </clipPath>
  </defs>
  <g id="Layer_1-2" data-name="Layer 1">
    <g class="cls-8">
      <g class="cls-5">
        <path class="cls-4" d="M502.08,512.49l-51.43-27.58,7.99-14.58M333.7,410.74l20.27-23.14-19.52-18.33-30.77,17.63M197.85,297.35l17.36,14.42,24.05-1.19,31.43,21.43,11.19,14.29,3.37,13.65M509.95,515.66l8.39-20.82M562.4,508.44l-12.1,21.19-27.92,2.5-18.99,27.14-19.05-5.6,16.67-34.76,1.07-6.43,15.36,6.19,3.33,4.52-1.55,4.52,3.16,4.4M522.38,496.24l-20.77-21.97-20.72-9.76-22.86-21.43-30.48-38.57-30-13.81-35.72-4.35-7.86,1.25,12.65,14.52,13.86,19.25M543.53,416.92l-13.06,10.62M440.65,321.49l7.3,8.57,52.54,62.23,17.3,16.83,13.97,20.32,13.02,16.67,17.79,5.11M405.6,277.41l11.46,25.55,9.7,9.4.64,4.92M410.13,268.87l-18.08,34.09M381,296.37l22.14,13.21,37.5,11.9h3.57l8.9-17.24M345.29,302.56l-18.57-4.05-11.67-10.71-2.14-19.23,29.05,10.89,12.55-1.33M421.49,234.58l-31.44,14.88-22.14,5.95-22.62,38.34v8.81h18.81l16.9-6.19-6.9-11.9,15.95-35M214.92,163.15l6.89-42.66-6.89-6.99-28.57,15M184.81,106.72l1.55,21.79v18.22l28.57,16.43,17.53,2.83M395.3,216.7l31.18,21.38-6.35,13.33-10,17.46,9.37,11.75,43.97,30.91,59.25,77.54,33.34,44.61,18.06,48.56,1.41,10.64-13.12,15.56-18.1-4.6-42.86-14.84-42.81-18.67-35.77-39.91-42.38-9.05-15.56,11.07-34.7-24.12-26.54-21.43-18.44-26.96-65.14-12.42-15.72-11.07-7.68-35.79,11.79-34.29-30.32-14.17-12.15-16.96-17.28,18.05-21.42-9.11-15,4.64-5.63,31.84-26.79,11.79-22.5-75.8-13.57-30.99,3.57-30,50.36,7.86,9.29,1.79,18.21-9.64,24.29-29.19,25.71-16.52,9.53-3.21,19.05-6.43,13.57-18.93,21.07-9.64-13.21-15,7.17-20.71,91.04,65.72,3.96,36.17M395.56,216.7l-43.22-.36-16.07,5.71-72.38-6.07-7.98-7.02,2.26-6.07,30-13.81,5.95-8.33-3.33-5.48-58.34-9.29,7.62-27.86,56.43-11.67,4.79,15.38,26.17-3.95,1.9,12.62,32.94,35.38,33.25,30.81Z"/>
        <polygon class="cls-3" points="232.46 36 225.28 56.72 238.5 71.72 217.42 81.36 203.85 100.29 175.28 109.93 149.33 126.74 125.28 155.65 107.06 165.29 47.42 155.65 43.85 185.65 57.43 216.68 79.92 292.44 106.71 280.65 112.65 248.72 127.33 244.17 148.75 253.29 166.03 235.23 178.18 252.19 208.5 266.37 196.71 300.65 204.39 336.45 220.1 347.52 285.24 359.94 303.68 386.9 334.38 411.21 364.93 432.45 380.49 421.37 422.87 430.42 458.64 470.33 450.65 484.91 502.08 512.49 501.01 518.92 484.34 553.68 503.39 559.28 522.38 532.13 550.3 529.63 562.4 508.44 575.52 492.45 573.96 481.83 556.05 433.68 462.89 311.12 419.5 280.61 410.13 268.87 421.49 248.55 426.48 238.07 394.88 216.07 360.59 184.04 329.29 150.01 323.5 101.72 232.46 36"/>
        <path class="cls-7" d="M536.99,386.35c0,8.58-6.96,15.54-15.54,15.54s-15.54-6.96-15.54-15.54,6.96-15.54,15.54-15.54,15.54,6.96,15.54,15.54"/>
        <path class="cls-6" d="M309.68,144.5c0,8.58-6.96,15.54-15.54,15.54s-15.54-6.96-15.54-15.54,6.96-15.54,15.54-15.54,15.54,6.96,15.54,15.54"/>
        <path class="cls-6" d="M548.51,509.4c0,8.58-6.96,15.54-15.54,15.54s-15.54-6.96-15.54-15.54,6.96-15.54,15.54-15.54,15.54,6.96,15.54,15.54"/>
        <path class="cls-6" d="M485.01,335.51c0,1.59-1.29,2.88-2.88,2.88s-2.88-1.29-2.88-2.88,1.29-2.88,2.88-2.88,2.88,1.29,2.88,2.88"/>
        <path class="cls-6" d="M360.26,181.7c0,1.59-1.29,2.88-2.88,2.88s-2.88-1.29-2.88-2.88,1.29-2.88,2.88-2.88,2.88,1.29,2.88,2.88"/>
        <path class="cls-6" d="M126.91,156.14c0,1.59-1.29,2.88-2.88,2.88s-2.88-1.29-2.88-2.88,1.29-2.88,2.88-2.88,2.88,1.29,2.88,2.88"/>
        <path class="cls-6" d="M513.39,548.58c0,1.59-1.29,2.88-2.88,2.88s-2.88-1.29-2.88-2.88,1.29-2.88,2.88-2.88,2.88,1.29,2.88,2.88"/>
      </g>
      <path class="cls-1" transform="translate(-256.41 -121.149) scale(1.7)" d="M366.3,171.09h.48v2.63l-.48.09v-2.73ZM370.37,171.09c1.42,0,2.06.68,2.06,2.21v2.45h-.48v-2.45c0-1.22-.49-1.79-1.59-1.79h-1.4v3.25c0,.7-.35,1.04-.91,1.04-.24,0-.56-.05-.78-.12l.08-.38c.18.06.34.1.56.1.4,0,.57-.25.57-.76v-3.13h-.72v-.41h2.61ZM377.74,173.38c0,1.49-.9,2.45-2.45,2.45-.6,0-1.13-.08-1.67-.32l.12-.37c.5.21,1,.29,1.55.29,1.22,0,1.97-.81,1.97-2.05,0-1.15-.68-1.97-1.83-1.97-.88,0-1.53.46-1.53,1.19,0,.69.63,1.1,1.47,1.03v.38c-1.13.1-1.95-.5-1.95-1.41,0-1.02.86-1.59,2.01-1.59,1.46,0,2.31.98,2.31,2.38ZM382.3,175.75h-.47v-2.39c0-1.32-.67-1.93-1.74-1.93-.56,0-1.02.15-1.5.4l-.16-.35c.58-.33,1.16-.45,1.73-.45,1.26,0,2.14.7,2.14,2.31v2.41ZM387.05,175.69v.05h-3.94v-.41h3.15l-3.29-4.23v-.02h.54l1.9,2.46c.67-.29,1.09-1.1,1.03-2.46h.47c.05,1.54-.43,2.45-1.25,2.79l1.4,1.82ZM390.71,171.09h3.39v.05l-1.85,4.61h-.51v-.02l1.73-4.23h-3.24v-1.19h.48v.78ZM399.76,173.4c0,1.94-1.13,2.84-2.96,2.18l.12-.4c1.54.59,2.38-.16,2.38-1.78,0-1.17-.64-1.96-1.55-1.96-1.03,0-1.49,1.06-1.75,2.04l-.61,2.27h-.48l.61-2.21-.83-2.45h.48l.6,1.83c.3-.98.9-1.9,1.97-1.9,1.21,0,2.03.98,2.03,2.38ZM404.35,175.75h-.47v-2.39c0-1.32-.67-1.93-1.74-1.93-.56,0-1.02.15-1.5.4l-.16-.35c.58-.33,1.16-.45,1.73-.45,1.26,0,2.14.7,2.14,2.31v2.41ZM409.33,173.42c0,1.46-.95,2.41-2.35,2.41-.65,0-1.15-.16-1.55-.41l.16-.34c.33.21.75.36,1.34.36,1.14,0,1.91-.8,1.91-2.01s-.77-2.01-1.9-2.01c-.63,0-1.07.16-1.57.51l-.19-.33c.58-.41,1.11-.57,1.79-.57,1.4,0,2.35.95,2.35,2.41Z"/>
      <path class="cls-1" transform="translate(-338.261 -227.416) scale(1.7)" d="M483.23,322.9h.48v2.63l-.48.09v-2.73ZM484.64,327.56v-.41h1.48v-2.73c0-.74-.23-1.11-.82-1.11h-.47v-.41h.61c.82,0,1.16.49,1.16,1.41v3.25h-1.96ZM488.42,322.9v4.66h-.48v-4.66h.48ZM493.77,325.19c0,1.49-.9,2.45-2.45,2.45-.6,0-1.13-.08-1.67-.32l.12-.37c.5.21,1,.29,1.55.29,1.22,0,1.97-.81,1.97-2.05,0-1.15-.68-1.97-1.83-1.97-.88,0-1.53.46-1.53,1.19,0,.69.63,1.1,1.47,1.03v.38c-1.13.1-1.95-.5-1.95-1.41,0-1.02.86-1.59,2.01-1.59,1.46,0,2.31.98,2.31,2.38ZM498.26,327.51v.05h-3.94v-.41h3.15l-3.29-4.23v-.02h.54l1.9,2.46c.67-.29,1.09-1.1,1.03-2.46h.47c.05,1.54-.43,2.45-1.25,2.79l1.4,1.82ZM501.91,322.9h3.39v.05l-1.85,4.61h-.51v-.02l1.73-4.23h-3.24v-1.19h.48v.78ZM510.97,325.21c0,1.94-1.13,2.84-2.96,2.18l.12-.4c1.54.59,2.38-.16,2.38-1.78,0-1.17-.64-1.96-1.55-1.96-1.03,0-1.49,1.06-1.75,2.04l-.61,2.27h-.48l.61-2.21-.83-2.45h.48l.6,1.83c.3-.98.9-1.9,1.97-1.9,1.21,0,2.03.98,2.03,2.38ZM515.56,327.56h-.47v-2.39c0-1.32-.67-1.93-1.74-1.93-.56,0-1.02.15-1.5.4l-.16-.35c.58-.33,1.16-.45,1.73-.45,1.26,0,2.14.7,2.14,2.31v2.41ZM520.53,325.23c0,1.46-.95,2.41-2.35,2.41-.65,0-1.15-.16-1.55-.41l.16-.34c.33.21.75.36,1.34.36,1.14,0,1.91-.8,1.91-2.01s-.77-2.01-1.9-2.01c-.63,0-1.07.16-1.57.51l-.19-.33c.58-.41,1.11-.57,1.79-.57,1.4,0,2.35.95,2.35,2.41Z"/>
      <path class="cls-1" transform="translate(-364.301 -255.395) scale(1.7)" d="M521.43,361.58v6.62h-1v-6.62h1ZM522.72,361.58h1v2.93l-1,.16v-3.09ZM530.13,364.01c0,1.78-.93,2.84-2.59,2.84s-2.64-1.06-2.64-2.84v-2.43h1v2.43c0,1.24.59,1.99,1.64,1.99s1.61-.74,1.61-1.99c0-.98-.36-1.64-1.11-1.64-.37,0-.6.08-.88.22l-.25-.75c.33-.18.73-.32,1.25-.32,1.16,0,1.97.81,1.97,2.5ZM532.21,361.58v5.18h-1v-5.18h1ZM533.53,361.58h4.83v2.98c0,1.73-.79,2.26-1.86,2.26-.39,0-.71-.04-1.04-.15l.11-.83c.25.08.54.12.79.12.7,0,1.03-.34,1.03-1.49v-2.04h-3.86v-.86ZM534.55,363.76v4.44h-.97v-4.32l.97-.12ZM539.61,361.58h1v2.93l-1,.16v-3.09ZM547.02,364.01c0,1.78-.93,2.84-2.59,2.84s-2.64-1.06-2.64-2.84v-2.43h1v2.43c0,1.24.59,1.99,1.64,1.99s1.61-.74,1.61-1.99c0-.98-.36-1.64-1.11-1.64-.37,0-.6.08-.88.22l-.25-.75c.33-.18.73-.32,1.25-.32,1.16,0,1.97.81,1.97,2.5ZM551.69,361.58v6.62h-1v-6.62h1ZM554.04,361.58v5.18h-1v-5.18h1ZM560.3,366.72v.04h-1.11l-2.17-2.76c-.6.37-.89,1.14-.85,2.76h-1c-.04-2.03.41-2.95,1.33-3.43l-1.34-1.71v-.04h1.11l2.17,2.76c.6-.36.9-1.13.85-2.76h1c.04,2.04-.42,2.95-1.34,3.43l1.35,1.71ZM561.33,361.58h1v2.93l-1,.16v-3.09ZM566.41,362.43c-1.59,0-1.99,1.1-.8,4.33h-1.06c-.86-2.43-.78-3.89.35-4.33h-1.55v-.86h3.07v.86ZM568.37,361.58v5.18h-1v-5.18h1ZM575.17,364.14c0,2.17-1.3,3.17-3.3,2.42l.22-.81c1.4.56,2.13-.09,2.13-1.61,0-1.09-.58-1.76-1.36-1.76-.84,0-1.3.78-1.62,1.96l-.65,2.42h-.99l.67-2.41-.94-2.77h.98l.49,1.55c.36-.96,1.06-1.63,2.02-1.63,1.41,0,2.35,1.09,2.35,2.64Z"/>
      <path class="cls-1" transform="translate(-392.91 -339.269) scale(1.7)" d="M536,484.53c0,1.57-.82,2.56-2.27,2.56s-2.3-.99-2.3-2.56v-2.18h.48v2.18c0,1.31.64,2.14,1.82,2.14s1.79-.83,1.79-2.14c0-1.1-.46-1.83-1.29-1.83-.37,0-.66.07-.97.23l-.12-.36c.29-.17.68-.29,1.15-.29,1.04,0,1.71.82,1.71,2.24ZM540.59,484.68c0,1.46-.91,2.41-2.29,2.41-.66,0-1.17-.17-1.64-.48l.16-.33c.4.26.84.42,1.43.42,1.13,0,1.86-.8,1.86-2.01s-.73-2.01-1.86-2.01c-.59,0-1.03.16-1.43.42l-.16-.33c.47-.31.98-.48,1.64-.48,1.38,0,2.29.95,2.29,2.41ZM541.68,482.35h2.04c1.43,0,2.1.71,2.1,2.25v2.41h-.48v-2.41c0-1.27-.51-1.84-1.62-1.84h-2.04v-.41ZM541.74,484.5l.48-.08v2.59h-.48v-2.51ZM551.96,482.35c1.42,0,2.06.68,2.06,2.21v2.45h-.48v-2.45c0-1.22-.49-1.79-1.59-1.79h-1.4v3.25c0,.7-.35,1.04-.91,1.04-.24,0-.56-.05-.78-.12l.08-.38c.18.06.34.1.56.1.4,0,.57-.25.57-.76v-3.13h-.72v-.41h2.61ZM555.14,482.35h.48v2.63l-.48.09v-2.73ZM560.55,486.6h.75v.41h-4.62v-.41h3.39v-2.14c0-1.05-.44-1.79-1.58-1.79-.62,0-1.16.18-1.72.47l-.16-.36c.63-.35,1.27-.53,1.95-.53,1.44,0,1.99.87,1.99,2.17v2.17Z"/>
      <path class="cls-1" transform="translate(-362.838 -384.174) scale(1.7)" d="M518.82,546.84h3.39v.05l-1.85,4.61h-.51v-.02l1.73-4.23h-3.24v-1.19h.48v.78ZM527.88,549.15c0,1.94-1.13,2.84-2.96,2.18l.12-.4c1.54.59,2.38-.16,2.38-1.78,0-1.17-.64-1.96-1.55-1.96-1.03,0-1.49,1.06-1.75,2.04l-.61,2.27h-.48l.61-2.21-.83-2.45h.48l.6,1.83c.3-.98.9-1.9,1.97-1.9,1.21,0,2.03.98,2.03,2.38ZM532.47,551.5h-.47v-2.39c0-1.32-.67-1.93-1.74-1.93-.56,0-1.02.15-1.5.4l-.16-.35c.58-.33,1.16-.45,1.73-.45,1.26,0,2.14.7,2.14,2.31v2.41ZM537.44,549.17c0,1.46-.95,2.41-2.35,2.41-.65,0-1.15-.16-1.55-.41l.16-.34c.33.21.75.36,1.34.36,1.14,0,1.91-.8,1.91-2.01s-.77-2.01-1.9-2.01c-.63,0-1.07.16-1.57.51l-.19-.33c.58-.41,1.11-.57,1.79-.57,1.4,0,2.35.95,2.35,2.41ZM538.52,546.84h2.04c1.43,0,2.1.71,2.1,2.25v2.41h-.48v-2.41c0-1.27-.51-1.84-1.62-1.84h-2.04v-.41ZM538.58,548.99l.48-.08v2.59h-.48v-2.51ZM548.68,547.25c-1.58,0-2.05,1.08-.94,4.25h-.5c-.8-2.3-.83-3.89.44-4.25h-1.68v-.41h2.68v.41ZM553.23,549.17c0,1.46-.91,2.41-2.29,2.41-.66,0-1.17-.17-1.64-.48l.16-.33c.4.26.84.42,1.43.42,1.13,0,1.86-.8,1.86-2.01s-.73-2.01-1.86-2.01c-.59,0-1.03.16-1.43.42l-.16-.33c.47-.31.98-.48,1.64-.48,1.38,0,2.29.95,2.29,2.41ZM557.79,551.5h-.47v-2.39c0-1.32-.67-1.93-1.74-1.93-.56,0-1.02.15-1.5.4l-.16-.35c.58-.33,1.16-.45,1.73-.45,1.26,0,2.14.7,2.14,2.31v2.41ZM563.72,549.15c0,1.94-1.13,2.84-2.96,2.18l.12-.4c1.54.59,2.38-.16,2.38-1.78,0-1.17-.64-1.96-1.55-1.96-1.03,0-1.49,1.06-1.75,2.04l-.61,2.27h-.48l.61-2.21-.83-2.45h.48l.6,1.83c.3-.98.9-1.9,1.97-1.9,1.21,0,2.03.98,2.03,2.38Z"/>
      <path class="cls-1" transform="translate(-194.135 -83.174) scale(1.7)" d="M261.24,120.47h-.47v-2.39c0-1.32-.67-1.93-1.74-1.93-.56,0-1.02.15-1.5.4l-.16-.35c.58-.33,1.16-.45,1.73-.45,1.26,0,2.14.7,2.14,2.31v2.41ZM263.06,115.81c.76,0,1.16.41,1.16,1.17v3.5h-.38l-.06-1.16h0c-.21.62-.68,1.16-1.5,1.16h-.3v-.44h.3c.97,0,1.48-.83,1.48-1.57v-1.4c0-.54-.26-.84-.78-.84h-.55v-.41h.64ZM265.49,115.81h.48v2.63l-.48.09v-2.73ZM270.75,120.47h-.47v-2.39c0-1.32-.67-1.93-1.74-1.93-.56,0-1.02.15-1.5.4l-.16-.35c.58-.33,1.16-.45,1.73-.45,1.26,0,2.14.7,2.14,2.31v2.41ZM272.03,115.81h4.19v2.71c0,1.46-.58,2-1.59,2-.35,0-.65-.05-.96-.14l.06-.4c.26.09.57.12.83.12.82,0,1.18-.44,1.18-1.63v-2.26h-3.72v-.41ZM272.56,117.78v4.12h-.47v-4.05l.47-.07ZM282.26,116.22c-1.58,0-2.05,1.08-.94,4.25h-.5c-.8-2.3-.83-3.89.44-4.25h-1.68v-.41h2.68v.41ZM286.8,118.14c0,1.46-.91,2.41-2.29,2.41-.66,0-1.17-.17-1.64-.48l.16-.33c.4.26.84.42,1.43.42,1.13,0,1.86-.8,1.86-2.01s-.73-2.01-1.86-2.01c-.59,0-1.03.16-1.43.42l-.16-.33c.47-.31.98-.48,1.64-.48,1.38,0,2.29.95,2.29,2.41ZM291.37,120.47h-.47v-2.39c0-1.32-.67-1.93-1.74-1.93-.56,0-1.02.15-1.5.4l-.16-.35c.58-.33,1.16-.45,1.73-.45,1.26,0,2.14.7,2.14,2.31v2.41ZM297.29,118.12c0,1.94-1.13,2.84-2.96,2.18l.12-.4c1.54.59,2.38-.16,2.38-1.78,0-1.17-.64-1.96-1.55-1.96-1.03,0-1.49,1.06-1.75,2.04l-.61,2.27h-.48l.61-2.21-.83-2.45h.48l.6,1.83c.3-.98.9-1.9,1.97-1.9,1.21,0,2.03.98,2.03,2.38Z"/>
      <path class="cls-1" transform="translate(-87.577 -102.63) scale(1.7)" d="M91.96,143.61c1.42,0,2.06.68,2.06,2.21v2.45h-.48v-2.45c0-1.22-.49-1.79-1.59-1.79h-1.4v3.25c0,.7-.35,1.04-.91,1.04-.24,0-.56-.05-.78-.12l.08-.38c.18.06.34.1.56.1.4,0,.57-.25.57-.76v-3.13h-.72v-.41h2.61ZM99.32,145.9c0,1.49-.9,2.45-2.45,2.45-.6,0-1.13-.08-1.67-.32l.12-.37c.5.21,1,.29,1.55.29,1.22,0,1.97-.81,1.97-2.05,0-1.15-.68-1.97-1.83-1.97-.88,0-1.53.46-1.53,1.19,0,.69.63,1.1,1.47,1.03v.38c-1.13.1-1.95-.5-1.95-1.41,0-1.02.86-1.59,2.01-1.59,1.46,0,2.31.98,2.31,2.38ZM103.89,148.27h-.47v-2.39c0-1.32-.67-1.93-1.74-1.93-.56,0-1.02.15-1.5.4l-.16-.35c.58-.33,1.16-.45,1.73-.45,1.26,0,2.14.7,2.14,2.31v2.41ZM108.64,148.22v.05h-3.94v-.41h3.15l-3.29-4.23v-.02h.54l1.9,2.46c.67-.29,1.09-1.1,1.03-2.46h.47c.05,1.54-.43,2.45-1.25,2.79l1.4,1.82ZM111.8,143.61h1.54c1.41,0,2.03.68,2.03,2.24v3.85h-.48v-3.85c0-1.27-.5-1.83-1.58-1.83h-1.51v-.41ZM120.08,148.27h-.47v-2.39c0-1.32-.67-1.93-1.74-1.93-.56,0-1.02.15-1.5.4l-.16-.35c.58-.33,1.16-.45,1.73-.45,1.26,0,2.14.7,2.14,2.31v2.41ZM120.72,143.61h4.39v.41c-.72,0-1.14.43-1.14,1.34v2.91h-.48v-2.9c0-.75.27-1.15.67-1.35h-3.43v-.41Z"/>
    </g>
  </g>
</svg>