<?xml version="1.0" encoding="UTF-8"?>
<svg id="Layer_2" data-name="Layer 2" xmlns="http://www.w3.org/2000/svg" viewBox="0 0 260 108.54">
  <defs>
    <style>
      .cls-1 {
        fill: #ef5443;
      }
    </style>
  </defs>
  <g id="Layer_1-2" data-name="Layer 1">
    <path class="cls-1" d="M56.04,108.46c-9.65.48-16.56-1.18-25.61-6.13-4.42-2.42-10.25.58-14.39,2.48-4.34-1.48-7.31-1.03-11.98.95.8-3.85,1.1-6.03.26-9.39,2.73-4.5,2.93-8.97,6.67-12.1l-3.94-9.67-4.24-5.77c-3.1-4.23-2.63-8.65.89-12.69.97-1.11-1.13-3.58-1.81-4.66,1.93-4.7,0-10.07-.78-14.86-.63-3.82-.23-7.19-1.11-11.12l1.4-10.82c.18-1.38-.67-3.05-.03-4.06.5-.8,2.13-1.81,3.45-2.18l9.17-2.54c8.26-2.28,19.91,1.91,26.92.91,6.49,3.25,12.65,6.41,19.93,7.78l2.1,4.46c5.93-1.55,13.7,1.34,18.27,5.1,5.71.41,10.3-3.41,14.68-6.53,9.09-6.48,11.62-.58,14.67.07,1.21.25,2.85-1.26,3.87-1.74,3.42.45,7.1,1.2,10.64-.21s7.17-.8,10.82-1.28,6.72-1.45,10.21.12c3.74,1.69,14.7.73,21-4.07,3.73-2.84,9.12-3.66,14.44-6.09,7.91-3.61,16.97-3.21,25.24-4.16,5.05-.58,8.25-.26,12.95,1.6,3.74,1.48,7.77,2.08,11.49,4.6,4.08,2.76,9.08.48,13.86-1.32l.95,11.41c-1.28,9.68-2,18.33,3.76,26.5,2.45,3.47,4.19,9.62,6.1,14.62,3.18,8.33,3,17.52,3.88,26.18.46,4.58.52,7.65-1.82,11.98-.48.9-.49,3.29-.92,4.23-1.95,4.28-27.49,5.19-41.04-.56l-14.76-6.25c-1.1-.47-1.5-4.29-4.01-3.16-3.49,1.57-5.73-.41-8.73-1.71-2.64-1.14-5.53-.93-7.35-4.18l-8.62,2.98c-5.77,4.13-14.15,10.49-16.97,6.21-2.31-3.52-5.3-.51-7.18-.57-11.64-.35-21.73,3.01-27.91,2.3-8.43-.96-16.46-2.83-25.46,3.66-5.78,4.17-11.19,3.64-13.39,5.52-3.65,3.12-9.67,2.11-13.55,3.32-4.41,1.38-7.85.62-11.99.83Z"/>
  </g>
</svg>