<?xml version="1.0" encoding="UTF-8"?>
<svg id="Layer_2" data-name="Layer 2" xmlns="http://www.w3.org/2000/svg" xmlns:xlink="http://www.w3.org/1999/xlink" viewBox="0 0 632.13 595.28">
  <defs>
    <style>
      .cls-1 {
        fill: #ecf4db;
      }

      .cls-2, .cls-3, .cls-4 {
        fill: none;
      }

      .cls-3 {
        stroke: #ecf4db;
        stroke-width: .72px;
      }

      .cls-3, .cls-4 {
        stroke-miterlimit: 10;
      }

      .cls-4 {
        stroke: #ecf4db;
        stroke-width: .36px;
      }

      .cls-5 {
        fill: #ecf4db;
      }

      .cls-6 {
        fill: #dbdc2d;
      }

      .cls-7 {
        clip-path: url(#clippath);
      }
    </style>
    <clipPath id="clippath">
      <rect class="cls-2" width="560.13" height="523.28"/>
    </clipPath>
  </defs>
  <g id="Layer_1-2" data-name="Layer 1">
    <g transform="translate(29.62, 36)">
      <g class="cls-7">
        <path class="cls-4" d="M472.46,476.49l-51.43-27.58,7.99-14.58M304.08,374.74l20.27-23.14-19.52-18.33-30.77,17.63M168.22,261.35l17.36,14.42,24.05-1.19,31.43,21.43,11.19,14.29,3.37,13.65M480.33,479.66l8.39-20.82M532.78,472.44l-12.1,21.19-27.92,2.5-18.99,27.14-19.05-5.6,16.67-34.76,1.07-6.43,15.36,6.19,3.33,4.52-1.55,4.52,3.16,4.4M492.76,460.24l-20.77-21.97-20.72-9.76-22.86-21.43-30.48-38.57-30-13.81-35.71-4.35-7.86,1.25,12.65,14.52,13.86,19.25M513.9,380.92l-13.06,10.62M411.03,285.49l7.3,8.57,52.54,62.23,17.3,16.83,13.97,20.32,13.02,16.67,17.79,5.11M375.98,241.41l11.46,25.55,9.7,9.4.64,4.92M380.51,232.87l-18.08,34.09M351.38,260.37l22.14,13.21,37.5,11.9h3.57l8.9-17.24M315.66,266.56l-18.57-4.05-11.67-10.71-2.14-19.23,29.05,10.89,12.55-1.33M391.87,198.58l-31.44,14.88-22.14,5.95-22.62,38.34v8.81h18.81l16.9-6.19-6.9-11.9,15.95-35M185.3,127.15l6.89-42.66-6.89-6.99-28.57,15M155.18,70.72l1.55,21.79v18.22l28.57,16.43,17.53,2.83M365.68,180.7l31.18,21.38-6.35,13.33-10,17.46,9.37,11.75,43.97,30.91,59.25,77.54,33.34,44.61,18.06,48.56,1.41,10.64-13.12,15.56-18.1-4.6-42.86-14.84-42.81-18.67-35.77-39.91-42.38-9.05-15.56,11.07-34.7-24.12-26.54-21.43-18.44-26.96-65.14-12.42-15.72-11.07-7.68-35.79,11.79-34.29-30.32-14.17-12.15-16.96-17.28,18.05-21.42-9.11-15,4.64-5.63,31.84-26.79,11.79-22.5-75.8-13.57-30.99,3.57-30,50.36,7.86,9.29,1.79,18.21-9.64,24.29-29.19,25.71-16.52,9.53-3.21,19.05-6.43,13.57-18.93,21.07-9.64-13.21-15L202.84,0l91.04,65.72,3.96,36.17M365.94,180.7l-43.22-.36-16.07,5.71-72.38-6.07-7.98-7.02,2.26-6.07,30-13.81,5.95-8.33-3.33-5.48-58.34-9.29,7.62-27.86,56.43-11.67,4.79,15.38,26.17-3.95,1.9,12.62,32.94,35.38,33.25,30.81Z"/>
        <polygon class="cls-3" points="202.84 0 195.66 20.71 208.87 35.72 187.8 45.36 174.23 64.29 145.66 73.93 119.7 90.74 95.66 119.65 77.44 129.29 17.8 119.65 14.22 149.65 27.81 180.68 50.3 256.44 77.08 244.65 83.03 212.72 97.71 208.17 119.13 217.28 136.4 199.23 148.56 216.19 178.87 230.37 167.09 264.65 174.77 300.45 190.48 311.52 255.62 323.94 274.06 350.9 304.75 375.21 335.31 396.44 350.86 385.37 393.25 394.42 429.01 434.33 421.03 448.91 472.46 476.49 471.38 482.92 454.72 517.68 473.77 523.28 492.75 496.13 520.67 493.63 532.78 472.44 545.9 456.45 544.34 445.83 526.43 397.67 433.27 275.12 389.87 244.61 380.51 232.87 391.87 212.55 396.86 202.07 365.26 180.07 330.97 148.04 299.67 114.01 293.88 65.72 202.84 0"/>
        <path class="cls-5" d="M507.37,350.35c0,8.58-6.96,15.54-15.54,15.54s-15.54-6.96-15.54-15.54,6.96-15.54,15.54-15.54,15.54,6.96,15.54,15.54"/>
        <path class="cls-6" d="M280.06,108.5c0,8.58-6.96,15.54-15.54,15.54s-15.54-6.96-15.54-15.54,6.96-15.54,15.54-15.54,15.54,6.96,15.54,15.54"/>
        <path class="cls-5" d="M518.89,473.39c0,8.58-6.96,15.54-15.54,15.54s-15.54-6.96-15.54-15.54,6.96-15.54,15.54-15.54,15.54,6.96,15.54,15.54"/>
        <path class="cls-5" d="M455.39,299.51c0,1.59-1.29,2.88-2.88,2.88s-2.88-1.29-2.88-2.88,1.29-2.88,2.88-2.88,2.88,1.29,2.88,2.88"/>
        <path class="cls-5" d="M330.64,145.7c0,1.59-1.29,2.88-2.88,2.88s-2.88-1.29-2.88-2.88,1.29-2.88,2.88-2.88,2.88,1.29,2.88,2.88"/>
        <path class="cls-5" d="M97.29,120.14c0,1.59-1.29,2.88-2.88,2.88s-2.88-1.29-2.88-2.88,1.29-2.88,2.88-2.88,2.88,1.29,2.88,2.88"/>
        <path class="cls-5" d="M483.77,512.58c0,1.59-1.29,2.88-2.88,2.88s-2.88-1.29-2.88-2.88,1.29-2.88,2.88-2.88,2.88,1.29,2.88,2.88"/>
      </g>
      <path class="cls-1" transform="translate(-236.866 -95.949) scale(1.7)" d="M338.38,135.09h.48v2.63l-.48.09v-2.73ZM342.45,135.09c1.42,0,2.06.68,2.06,2.21v2.45h-.48v-2.45c0-1.22-.49-1.79-1.59-1.79h-1.4v3.25c0,.7-.35,1.04-.91,1.04-.24,0-.56-.05-.78-.12l.08-.38c.18.06.34.1.56.1.4,0,.57-.25.57-.76v-3.13h-.72v-.41h2.61ZM349.81,137.38c0,1.49-.9,2.45-2.45,2.45-.6,0-1.13-.08-1.67-.32l.12-.37c.5.21,1,.29,1.55.29,1.22,0,1.97-.81,1.97-2.05,0-1.15-.68-1.97-1.83-1.97-.88,0-1.53.46-1.53,1.19,0,.69.63,1.1,1.47,1.03v.38c-1.13.1-1.95-.5-1.95-1.41,0-1.02.86-1.59,2.01-1.59,1.46,0,2.31.98,2.31,2.38ZM354.38,139.75h-.47v-2.39c0-1.32-.67-1.93-1.74-1.93-.56,0-1.02.15-1.5.4l-.16-.35c.58-.33,1.16-.45,1.73-.45,1.26,0,2.14.7,2.14,2.31v2.41ZM359.13,139.69v.05h-3.94v-.41h3.15l-3.29-4.23v-.02h.54l1.9,2.46c.67-.29,1.09-1.1,1.03-2.46h.47c.05,1.54-.43,2.45-1.25,2.79l1.4,1.82ZM362.78,135.09h3.39v.05l-1.85,4.61h-.51v-.02l1.73-4.23h-3.24v-1.19h.48v.78ZM371.84,137.39c0,1.94-1.13,2.84-2.96,2.18l.12-.4c1.54.59,2.38-.16,2.38-1.78,0-1.17-.64-1.96-1.55-1.96-1.03,0-1.49,1.06-1.75,2.04l-.61,2.27h-.48l.61-2.21-.83-2.45h.48l.6,1.83c.3-.98.9-1.9,1.97-1.9,1.21,0,2.03.98,2.03,2.38ZM376.43,139.75h-.47v-2.39c0-1.32-.67-1.93-1.74-1.93-.56,0-1.02.15-1.5.4l-.16-.35c.58-.33,1.16-.45,1.73-.45,1.26,0,2.14.7,2.14,2.31v2.41ZM381.41,137.42c0,1.46-.95,2.41-2.35,2.41-.65,0-1.15-.16-1.55-.41l.16-.34c.33.21.75.36,1.34.36,1.14,0,1.91-.8,1.91-2.01s-.77-2.01-1.9-2.01c-.63,0-1.07.16-1.57.51l-.19-.33c.58-.41,1.11-.57,1.79-.57,1.4,0,2.35.95,2.35,2.41Z"/>
      <path class="cls-1" transform="translate(-318.717 -202.216) scale(1.7)" d="M455.31,286.9h.48v2.63l-.48.09v-2.73ZM456.72,291.56v-.41h1.48v-2.73c0-.74-.23-1.11-.82-1.11h-.47v-.41h.61c.82,0,1.17.49,1.17,1.41v3.25h-1.96ZM460.49,286.9v4.66h-.48v-4.66h.48ZM465.84,289.19c0,1.49-.9,2.45-2.45,2.45-.6,0-1.13-.08-1.67-.32l.12-.37c.5.21,1,.29,1.55.29,1.22,0,1.97-.81,1.97-2.05,0-1.15-.68-1.97-1.83-1.97-.88,0-1.53.46-1.53,1.19,0,.69.63,1.1,1.47,1.03v.38c-1.13.1-1.95-.5-1.95-1.41,0-1.02.86-1.59,2.01-1.59,1.46,0,2.31.98,2.31,2.38ZM470.34,291.51v.05h-3.94v-.41h3.15l-3.29-4.23v-.02h.54l1.9,2.46c.67-.29,1.09-1.1,1.03-2.46h.47c.05,1.54-.43,2.45-1.25,2.79l1.4,1.82ZM473.99,286.9h3.39v.05l-1.85,4.61h-.51v-.02l1.73-4.23h-3.24v-1.19h.48v.78ZM483.04,289.21c0,1.94-1.13,2.84-2.96,2.18l.12-.4c1.54.59,2.38-.16,2.38-1.78,0-1.17-.64-1.96-1.55-1.96-1.03,0-1.49,1.06-1.75,2.04l-.61,2.27h-.48l.61-2.21-.83-2.45h.48l.6,1.83c.3-.98.9-1.9,1.97-1.9,1.21,0,2.03.98,2.03,2.38ZM487.64,291.56h-.47v-2.39c0-1.32-.67-1.93-1.74-1.93-.56,0-1.02.15-1.5.4l-.16-.35c.58-.33,1.16-.45,1.73-.45,1.26,0,2.14.7,2.14,2.31v2.41ZM492.61,289.23c0,1.46-.95,2.41-2.35,2.41-.65,0-1.15-.16-1.55-.41l.16-.34c.33.21.75.36,1.34.36,1.14,0,1.91-.8,1.91-2.01s-.77-2.01-1.9-2.01c-.63,0-1.07.16-1.57.51l-.19-.33c.58-.41,1.11-.57,1.79-.57,1.4,0,2.35.95,2.35,2.41Z"/>
      <path class="cls-1" transform="translate(-366.604 -229.922) scale(1.7)" d="M500.71,325.45v6.09h-.48v-6.09h.48ZM502.03,325.45h.48v2.63l-.48.09v-2.73ZM508.3,327.63c0,1.57-.82,2.56-2.27,2.56s-2.3-.99-2.3-2.56v-2.18h.48v2.18c0,1.31.64,2.14,1.82,2.14s1.79-.83,1.79-2.14c0-1.1-.46-1.83-1.29-1.83-.37,0-.66.07-.97.23l-.12-.36c.29-.17.68-.29,1.15-.29,1.04,0,1.71.82,1.71,2.24ZM509.91,325.45v4.66h-.48v-4.66h.48ZM511.25,325.45h4.19v2.71c0,1.46-.58,2-1.59,2-.35,0-.65-.05-.96-.14l.06-.4c.26.09.57.12.83.12.82,0,1.18-.44,1.18-1.63v-2.26h-3.72v-.41ZM511.78,327.42v4.12h-.47v-4.05l.47-.07ZM516.73,325.45h.48v2.63l-.48.09v-2.73ZM523,327.63c0,1.57-.82,2.56-2.27,2.56s-2.3-.99-2.3-2.56v-2.18h.48v2.18c0,1.31.64,2.14,1.82,2.14s1.79-.83,1.79-2.14c0-1.1-.46-1.83-1.29-1.83-.37,0-.66.07-.97.23l-.12-.36c.29-.17.68-.29,1.15-.29,1.04,0,1.71.82,1.71,2.24ZM526.94,325.45v6.09h-.48v-6.09h.48ZM528.8,325.45v4.66h-.48v-4.66h.48ZM534.37,330.09v.02h-.54l-2.35-2.82c-.7.37-1.06,1.1-1.03,2.82h-.48c-.05-1.92.4-2.72,1.25-3.13l-1.26-1.51v-.02h.54l2.35,2.82c.7-.37,1.06-1.1,1.03-2.82h.48c.05,1.92-.4,2.72-1.25,3.13l1.26,1.51ZM535.5,325.45h.48v2.63l-.48.09v-2.73ZM539.66,325.86c-1.58,0-2.05,1.08-.94,4.25h-.5c-.8-2.3-.83-3.89.44-4.25h-1.68v-.41h2.68v.41ZM541.1,325.45v4.66h-.48v-4.66h.48ZM547.2,327.76c0,1.94-1.13,2.84-2.96,2.18l.12-.4c1.54.59,2.38-.16,2.38-1.78,0-1.17-.64-1.96-1.55-1.96-1.03,0-1.49,1.06-1.75,2.04l-.61,2.27h-.48l.61-2.21-.83-2.45h.48l.6,1.83c.3-.98.9-1.9,1.97-1.9,1.21,0,2.03.98,2.03,2.38Z"/>
      <path class="cls-1" transform="translate(-373.366 -314.069) scale(1.7)" d="M508.08,448.53c0,1.57-.82,2.56-2.27,2.56s-2.3-.99-2.3-2.56v-2.18h.48v2.18c0,1.31.64,2.14,1.82,2.14s1.79-.83,1.79-2.14c0-1.1-.46-1.83-1.29-1.83-.37,0-.66.07-.97.23l-.12-.36c.29-.17.68-.29,1.15-.29,1.04,0,1.71.82,1.71,2.24ZM512.67,448.68c0,1.46-.91,2.41-2.29,2.41-.66,0-1.17-.17-1.64-.48l.16-.33c.4.26.84.42,1.43.42,1.13,0,1.86-.8,1.86-2.01s-.73-2.01-1.86-2.01c-.59,0-1.03.16-1.43.42l-.16-.33c.47-.31.98-.48,1.64-.48,1.38,0,2.29.95,2.29,2.41ZM513.76,446.35h2.04c1.43,0,2.1.71,2.1,2.25v2.41h-.48v-2.41c0-1.27-.51-1.84-1.62-1.84h-2.04v-.41ZM513.82,448.5l.48-.08v2.59h-.48v-2.51ZM524.03,446.35c1.42,0,2.06.68,2.06,2.21v2.45h-.48v-2.45c0-1.22-.49-1.79-1.59-1.79h-1.4v3.25c0,.7-.35,1.04-.91,1.04-.24,0-.56-.05-.78-.12l.08-.38c.18.06.34.1.56.1.4,0,.57-.25.57-.76v-3.13h-.72v-.41h2.61ZM527.22,446.35h.48v2.63l-.48.09v-2.73ZM532.63,450.6h.75v.41h-4.62v-.41h3.39v-2.14c0-1.05-.44-1.79-1.58-1.79-.62,0-1.16.18-1.72.47l-.16-.36c.63-.35,1.27-.53,1.95-.53,1.44,0,1.99.87,1.99,2.17v2.17Z"/>
      <path class="cls-1" transform="translate(-343.294 -358.974) scale(1.7)" d="M490.9,510.84h3.39v.05l-1.85,4.61h-.51v-.02l1.73-4.23h-3.24v-1.19h.48v.78ZM499.96,513.14c0,1.94-1.13,2.84-2.96,2.18l.12-.4c1.54.59,2.38-.16,2.38-1.78,0-1.17-.64-1.96-1.55-1.96-1.03,0-1.49,1.06-1.75,2.04l-.61,2.27h-.48l.61-2.21-.83-2.45h.48l.6,1.83c.3-.98.9-1.9,1.97-1.9,1.21,0,2.03.98,2.03,2.38ZM504.55,515.5h-.47v-2.39c0-1.32-.67-1.93-1.74-1.93-.56,0-1.02.15-1.5.4l-.16-.35c.58-.33,1.16-.45,1.73-.45,1.26,0,2.14.7,2.14,2.31v2.41ZM509.52,513.17c0,1.46-.95,2.41-2.35,2.41-.65,0-1.15-.16-1.55-.41l.16-.34c.33.21.75.36,1.34.36,1.14,0,1.91-.8,1.91-2.01s-.77-2.01-1.9-2.01c-.63,0-1.07.16-1.57.51l-.19-.33c.58-.41,1.11-.57,1.79-.57,1.4,0,2.35.95,2.35,2.41ZM510.6,510.84h2.04c1.43,0,2.1.71,2.1,2.25v2.41h-.48v-2.41c0-1.27-.51-1.84-1.62-1.84h-2.04v-.41ZM510.66,512.99l.48-.08v2.59h-.48v-2.51ZM520.76,511.25c-1.58,0-2.05,1.08-.94,4.25h-.5c-.8-2.3-.83-3.89.44-4.25h-1.68v-.41h2.68v.41ZM525.31,513.17c0,1.46-.91,2.41-2.29,2.41-.66,0-1.17-.17-1.64-.48l.16-.33c.4.26.84.42,1.43.42,1.13,0,1.86-.8,1.86-2.01s-.73-2.01-1.86-2.01c-.59,0-1.03.16-1.43.42l-.16-.33c.47-.31.98-.48,1.64-.48,1.38,0,2.29.95,2.29,2.41ZM529.87,515.5h-.47v-2.39c0-1.32-.67-1.93-1.74-1.93-.56,0-1.02.15-1.5.4l-.16-.35c.58-.33,1.16-.45,1.73-.45,1.26,0,2.14.7,2.14,2.31v2.41ZM535.8,513.14c0,1.94-1.13,2.84-2.96,2.18l.12-.4c1.54.59,2.38-.16,2.38-1.78,0-1.17-.64-1.96-1.55-1.96-1.03,0-1.49,1.06-1.75,2.04l-.61,2.27h-.48l.61-2.21-.83-2.45h.48l.6,1.83c.3-.98.9-1.9,1.97-1.9,1.21,0,2.03.98,2.03,2.38Z"/>
      <path class="cls-1" transform="translate(-172.928 -58.244) scale(1.7)" d="M229.11,85.12h-.97v-2.63c0-1.2-.6-1.81-1.59-1.81-.58,0-1.07.19-1.54.43l-.34-.71c.71-.4,1.38-.54,2.04-.54,1.38,0,2.39.78,2.39,2.57v2.68ZM231.06,79.94c1.01,0,1.51.48,1.51,1.43v3.76h-.77l-.15-1.05h-.03c-.27.68-.76,1.05-1.43,1.05h-.36v-.94h.36c.92,0,1.41-.65,1.41-1.41v-1.2c0-.53-.23-.78-.73-.78h-.54v-.86h.73ZM233.8,79.94h1v2.93l-1,.16v-3.09ZM240.06,85.12h-.97v-2.63c0-1.2-.6-1.81-1.59-1.81-.58,0-1.07.19-1.54.43l-.34-.71c.71-.4,1.38-.54,2.04-.54,1.38,0,2.39.78,2.39,2.57v2.68ZM241.31,79.94h4.83v2.98c0,1.73-.79,2.26-1.86,2.26-.39,0-.71-.04-1.05-.15l.11-.83c.25.08.54.12.79.12.7,0,1.03-.34,1.03-1.49v-2.04h-3.86v-.86ZM242.34,82.12v4.44h-.97v-4.32l.97-.12ZM252.83,80.79c-1.59,0-1.99,1.1-.8,4.33h-1.06c-.86-2.43-.78-3.89.35-4.33h-1.55v-.86h3.07v.86ZM257.82,82.53c0,1.63-1.01,2.68-2.59,2.68-.7,0-1.28-.18-1.8-.53l.32-.7c.38.22.81.4,1.36.4,1.05,0,1.71-.73,1.71-1.85s-.66-1.85-1.71-1.85c-.54,0-.98.17-1.36.41l-.32-.71c.52-.35,1.1-.53,1.8-.53,1.58,0,2.59,1.05,2.59,2.68ZM262.8,85.12h-.97v-2.63c0-1.2-.6-1.81-1.59-1.81-.58,0-1.07.19-1.54.43l-.34-.71c.71-.4,1.38-.54,2.04-.54,1.38,0,2.39.78,2.39,2.57v2.68ZM269.41,82.5c0,2.17-1.3,3.17-3.3,2.42l.22-.81c1.4.56,2.13-.09,2.13-1.61,0-1.09-.58-1.76-1.36-1.76-.84,0-1.3.78-1.62,1.96l-.65,2.42h-.99l.67-2.41-.94-2.77h.98l.49,1.55c.36-.96,1.06-1.63,2.02-1.63,1.41,0,2.35,1.09,2.35,2.64Z"/>
      <path class="cls-1" transform="translate(-68.026 -77.43) scale(1.7)" d="M64.04,107.61c1.42,0,2.06.68,2.06,2.21v2.45h-.48v-2.45c0-1.22-.49-1.79-1.59-1.79h-1.4v3.25c0,.7-.35,1.04-.91,1.04-.24,0-.56-.05-.78-.12l.08-.38c.18.06.34.1.56.1.4,0,.57-.25.57-.76v-3.13h-.72v-.41h2.61ZM71.4,109.9c0,1.49-.9,2.45-2.45,2.45-.6,0-1.13-.08-1.67-.32l.12-.37c.5.21,1,.29,1.55.29,1.22,0,1.97-.81,1.97-2.05,0-1.15-.68-1.97-1.83-1.97-.88,0-1.53.46-1.53,1.19,0,.69.63,1.1,1.47,1.03v.38c-1.13.1-1.95-.5-1.95-1.41,0-1.02.86-1.59,2.01-1.59,1.46,0,2.31.98,2.31,2.38ZM75.96,112.27h-.47v-2.39c0-1.32-.67-1.93-1.74-1.93-.56,0-1.02.15-1.5.4l-.16-.35c.58-.33,1.16-.45,1.73-.45,1.26,0,2.14.7,2.14,2.31v2.41ZM80.72,112.21v.05h-3.94v-.41h3.15l-3.29-4.23v-.02h.54l1.9,2.46c.67-.29,1.09-1.1,1.03-2.46h.47c.05,1.54-.43,2.45-1.25,2.79l1.4,1.82ZM83.88,107.61h1.54c1.41,0,2.03.68,2.03,2.24v3.85h-.48v-3.85c0-1.27-.5-1.83-1.58-1.83h-1.51v-.41ZM92.16,112.27h-.47v-2.39c0-1.32-.67-1.93-1.74-1.93-.56,0-1.02.15-1.5.4l-.16-.35c.58-.33,1.16-.45,1.73-.45,1.26,0,2.14.7,2.14,2.31v2.41ZM92.79,107.61h4.39v.41c-.72,0-1.14.43-1.14,1.34v2.91h-.48v-2.9c0-.75.27-1.15.67-1.35h-3.43v-.41Z"/>
    </g>
  </g>
</svg>